<svg width="428" height="362" viewBox="0 0 428 362" fill="none" xmlns="http://www.w3.org/2000/svg">
<path d="M171.294 276.658H201.518V164.972H171.294V276.658Z" fill="#EBEBEB"/>
<path d="M171.287 164.972H197.216V157.566H171.287V164.972Z" fill="#C7C7C7"/>
<path d="M174.609 252.333H198.203V168.841H174.609V252.333Z" fill="#DBDBDB"/>
<path d="M174.609 178.772H198.203V176.797H174.609V178.772Z" fill="white"/>
<path d="M174.609 186.948H198.203V184.974H174.609V186.948Z" fill="white"/>
<path d="M174.609 195.118H198.203V193.143H174.609V195.118Z" fill="white"/>
<path d="M174.609 203.295H198.203V201.32H174.609V203.295Z" fill="white"/>
<path d="M174.609 211.464H198.203V209.489H174.609V211.464Z" fill="white"/>
<path d="M174.609 219.641H198.203V217.666H174.609V219.641Z" fill="white"/>
<path d="M174.609 227.817H198.203V225.843H174.609V227.817Z" fill="white"/>
<path d="M174.609 235.987H198.203V234.012H174.609V235.987Z" fill="white"/>
<path d="M174.609 244.156H198.203V242.182H174.609V244.156Z" fill="white"/>
<path d="M174.609 252.326H198.203V250.351H174.609V252.326Z" fill="white"/>
<path d="M152.355 276.658H171.287V164.972H152.355V276.658Z" fill="#DBDBDB"/>
<path d="M155.195 164.972H171.287V157.566H155.195V164.972Z" fill="#A6A6A6"/>
<path d="M154.126 252.333H168.68V168.841H154.126V252.333Z" fill="#C7C7C7"/>
<path d="M154.126 178.772H168.68V176.797H154.126V178.772Z" fill="white"/>
<path d="M154.126 186.948H168.68V184.974H154.126V186.948Z" fill="white"/>
<path d="M154.126 195.118H168.68V193.143H154.126V195.118Z" fill="white"/>
<path d="M154.126 203.295H168.68V201.32H154.126V203.295Z" fill="white"/>
<path d="M154.126 211.464H168.68V209.489H154.126V211.464Z" fill="white"/>
<path d="M154.126 219.641H168.68V217.666H154.126V219.641Z" fill="white"/>
<path d="M154.126 227.817H168.68V225.843H154.126V227.817Z" fill="white"/>
<path d="M154.126 235.987H168.68V234.012H154.126V235.987Z" fill="white"/>
<path d="M154.126 244.156H168.68V242.182H154.126V244.156Z" fill="white"/>
<path d="M154.126 252.326H168.68V250.351H154.126V252.326Z" fill="white"/>
<path d="M14.0734 276.658H44.6211L44.6211 120.624H14.0734L14.0734 276.658Z" fill="#DBDBDB"/>
<path d="M33.9463 131.649H39.8826V125.689H33.9463V131.649Z" fill="#EBEBEB"/>
<path d="M26.3452 131.649H32.2815V125.689H26.3452V131.649Z" fill="#EBEBEB"/>
<path d="M33.9463 141.763H39.8826V135.803H33.9463V141.763Z" fill="#EBEBEB"/>
<path d="M26.3452 141.763H32.2815V135.803H26.3452V141.763Z" fill="#EBEBEB"/>
<path d="M33.9463 151.878H39.8826V145.918H33.9463V151.878Z" fill="#EBEBEB"/>
<path d="M26.3452 151.878H32.2815V145.918H26.3452V151.878Z" fill="#EBEBEB"/>
<path d="M33.9463 161.992H39.8826V156.032H33.9463V161.992Z" fill="#EBEBEB"/>
<path d="M26.3452 161.992H32.2815V156.032H26.3452V161.992Z" fill="#EBEBEB"/>
<path d="M33.9463 172.114H39.8826V166.154H33.9463V172.114Z" fill="#EBEBEB"/>
<path d="M26.3452 172.114H32.2815V166.154H26.3452V172.114Z" fill="#EBEBEB"/>
<path d="M33.9463 182.221H39.8826V176.261H33.9463V182.221Z" fill="#EBEBEB"/>
<path d="M26.3452 182.221H32.2815V176.261H26.3452V182.221Z" fill="#EBEBEB"/>
<path d="M33.9463 192.336H39.8826V186.376H33.9463V192.336Z" fill="#EBEBEB"/>
<path d="M26.3452 192.336H32.2815V186.376H26.3452V192.336Z" fill="#EBEBEB"/>
<path d="M33.9463 202.45H39.8826V196.49H33.9463V202.45Z" fill="#EBEBEB"/>
<path d="M26.3452 202.45H32.2815V196.49H26.3452V202.45Z" fill="#EBEBEB"/>
<path d="M33.9463 212.572H39.8826V206.612H33.9463V212.572Z" fill="#EBEBEB"/>
<path d="M26.3452 212.572H32.2815V206.612H26.3452V212.572Z" fill="#EBEBEB"/>
<path d="M33.9463 222.687H39.8826V216.727H33.9463V222.687Z" fill="#EBEBEB"/>
<path d="M26.3452 222.687H32.2815V216.727H26.3452V222.687Z" fill="#EBEBEB"/>
<path d="M33.9463 232.801H39.8826V226.841H33.9463V232.801Z" fill="#EBEBEB"/>
<path d="M26.3452 232.801H32.2815V226.841H26.3452V232.801Z" fill="#EBEBEB"/>
<path d="M33.9463 242.916H39.8826V236.956H33.9463V242.916Z" fill="#EBEBEB"/>
<path d="M26.3452 242.916H32.2815V236.956H26.3452V242.916Z" fill="#EBEBEB"/>
<path d="M33.9463 253.03H39.8826V247.07H33.9463V253.03Z" fill="#EBEBEB"/>
<path d="M26.3452 253.03H32.2815V247.07H26.3452V253.03Z" fill="#EBEBEB"/>
<path d="M33.9463 263.152H39.8826V257.192H33.9463V263.152Z" fill="#EBEBEB"/>
<path d="M24.7481 257.185H18.8119V263.145H24.7481V257.185Z" fill="#EBEBEB"/>
<path d="M24.7481 247.07H18.8119V253.03H24.7481V247.07Z" fill="#EBEBEB"/>
<path d="M24.7481 236.956H18.8119V242.916H24.7481V236.956Z" fill="#EBEBEB"/>
<path d="M24.7481 226.841H18.8119V232.801H24.7481V226.841Z" fill="#EBEBEB"/>
<path d="M24.7481 216.727H18.8119V222.687H24.7481V216.727Z" fill="#EBEBEB"/>
<path d="M24.7481 206.612H18.8119V212.572H24.7481V206.612Z" fill="#EBEBEB"/>
<path d="M24.7481 196.498H18.8119V202.458H24.7481V196.498Z" fill="#EBEBEB"/>
<path d="M24.7481 186.383H18.8119V192.343H24.7481V186.383Z" fill="#EBEBEB"/>
<path d="M24.7481 176.269H18.8119V182.229H24.7481V176.269Z" fill="#EBEBEB"/>
<path d="M24.7481 166.147H18.8119V172.107H24.7481V166.147Z" fill="#EBEBEB"/>
<path d="M24.7481 156.032H18.8119V161.992H24.7481V156.032Z" fill="#EBEBEB"/>
<path d="M24.7481 145.918H18.8119V151.878H24.7481V145.918Z" fill="#EBEBEB"/>
<path d="M24.7481 135.803H18.8119V141.763H24.7481V135.803Z" fill="#EBEBEB"/>
<path d="M24.7481 125.689H18.8119V131.649H24.7481V125.689Z" fill="#EBEBEB"/>
<path d="M26.3452 263.152H32.2815V257.192H26.3452V263.152Z" fill="#EBEBEB"/>
<path d="M-10.0107 276.658H14.0734L14.0734 120.624H-10.0107L-10.0107 276.658Z" fill="#A6A6A6"/>
<path d="M3.64727 257.185H-1.25693V263.145H3.64727V257.185Z" fill="#C7C7C7"/>
<path d="M3.64727 247.07H-1.25693V253.03H3.64727V247.07Z" fill="#C7C7C7"/>
<path d="M3.64727 236.956H-1.25693V242.916H3.64727V236.956Z" fill="#C7C7C7"/>
<path d="M3.64727 226.841H-1.25693V232.801H3.64727V226.841Z" fill="#C7C7C7"/>
<path d="M3.64727 216.727H-1.25693V222.687H3.64727V216.727Z" fill="#C7C7C7"/>
<path d="M3.64727 206.612H-1.25693V212.572H3.64727V206.612Z" fill="#C7C7C7"/>
<path d="M3.64727 196.498H-1.25693V202.458H3.64727V196.498Z" fill="#C7C7C7"/>
<path d="M3.64727 186.383H-1.25693V192.343H3.64727V186.383Z" fill="#C7C7C7"/>
<path d="M3.64727 176.269H-1.25693V182.229H3.64727V176.269Z" fill="#C7C7C7"/>
<path d="M3.64727 166.147H-1.25693V172.107H3.64727V166.147Z" fill="#C7C7C7"/>
<path d="M3.64727 156.032H-1.25693V161.992H3.64727V156.032Z" fill="#C7C7C7"/>
<path d="M3.64727 145.918H-1.25693V151.878H3.64727V145.918Z" fill="#C7C7C7"/>
<path d="M3.64727 135.803H-1.25693V141.763H3.64727V135.803Z" fill="#C7C7C7"/>
<path d="M4.95808 131.649H9.86227V125.689H4.95808L4.95808 131.649Z" fill="#C7C7C7"/>
<path d="M4.95808 141.763H9.86227V135.803H4.95808L4.95808 141.763Z" fill="#C7C7C7"/>
<path d="M4.95808 151.878H9.86227V145.918H4.95808L4.95808 151.878Z" fill="#C7C7C7"/>
<path d="M4.95808 161.992H9.86227V156.032H4.95808L4.95808 161.992Z" fill="#C7C7C7"/>
<path d="M4.95808 172.114H9.86227V166.154H4.95808L4.95808 172.114Z" fill="#C7C7C7"/>
<path d="M4.95808 182.221H9.86227V176.261H4.95808L4.95808 182.221Z" fill="#C7C7C7"/>
<path d="M4.95808 192.336H9.86227V186.376H4.95808L4.95808 192.336Z" fill="#C7C7C7"/>
<path d="M4.95808 202.45H9.86227V196.49H4.95808L4.95808 202.45Z" fill="#C7C7C7"/>
<path d="M4.95808 212.572H9.86227V206.612H4.95808L4.95808 212.572Z" fill="#C7C7C7"/>
<path d="M4.95808 222.687H9.86227V216.727H4.95808L4.95808 222.687Z" fill="#C7C7C7"/>
<path d="M4.95808 232.801H9.86227V226.841H4.95808L4.95808 232.801Z" fill="#C7C7C7"/>
<path d="M4.95808 242.916H9.86227V236.956H4.95808L4.95808 242.916Z" fill="#C7C7C7"/>
<path d="M4.95808 253.03H9.86227V247.07H4.95808L4.95808 253.03Z" fill="#C7C7C7"/>
<path d="M4.95808 263.152H9.86227V257.192H4.95808L4.95808 263.152Z" fill="#C7C7C7"/>
<path d="M3.64727 125.689H-1.25693V131.649H3.64727V125.689Z" fill="#C7C7C7"/>
<path d="M282.614 117.218H250.741V276.658H282.614V117.218Z" fill="#EBEBEB"/>
<path d="M250.741 117.218H283.375V114.04H250.741V117.218Z" fill="#C7C7C7"/>
<path d="M279.729 121.894H276.497V276.658H279.729V121.894Z" fill="white"/>
<path d="M274.011 121.894H270.779V276.658H274.011V121.894Z" fill="white"/>
<path d="M268.293 121.894H265.061V276.658H268.293V121.894Z" fill="white"/>
<path d="M262.575 121.894H259.344V276.658H262.575V121.894Z" fill="white"/>
<path d="M256.85 121.894H253.618V276.658H256.85V121.894Z" fill="white"/>
<path d="M276.497 132.17H279.729V125.902H276.497V132.17Z" fill="#EBEBEB"/>
<path d="M270.779 132.17H274.011V125.902H270.779V132.17Z" fill="#EBEBEB"/>
<path d="M265.054 132.17H268.286V125.902H265.054V132.17Z" fill="#EBEBEB"/>
<path d="M259.336 132.17H262.568V125.902H259.336V132.17Z" fill="#EBEBEB"/>
<path d="M253.618 132.17H256.85V125.902H253.618V132.17Z" fill="#EBEBEB"/>
<path d="M276.497 142.365H279.729V136.097H276.497V142.365Z" fill="#EBEBEB"/>
<path d="M270.779 142.365H274.011V136.097H270.779V142.365Z" fill="#EBEBEB"/>
<path d="M265.054 142.365H268.286V136.097H265.054V142.365Z" fill="#EBEBEB"/>
<path d="M259.336 142.365H262.568V136.097H259.336V142.365Z" fill="#EBEBEB"/>
<path d="M253.618 142.365H256.85V136.097H253.618V142.365Z" fill="#EBEBEB"/>
<path d="M276.497 152.546H279.729V146.277H276.497V152.546Z" fill="#EBEBEB"/>
<path d="M270.779 152.546H274.011V146.277H270.779V152.546Z" fill="#EBEBEB"/>
<path d="M265.054 152.546H268.286V146.277H265.054V152.546Z" fill="#EBEBEB"/>
<path d="M259.336 152.546H262.568V146.277H259.336V152.546Z" fill="#EBEBEB"/>
<path d="M253.618 152.546H256.85V146.277H253.618V152.546Z" fill="#EBEBEB"/>
<path d="M276.497 162.734H279.729V156.465H276.497V162.734Z" fill="#EBEBEB"/>
<path d="M270.779 162.734H274.011V156.465H270.779V162.734Z" fill="#EBEBEB"/>
<path d="M265.054 162.734H268.286V156.465H265.054V162.734Z" fill="#EBEBEB"/>
<path d="M259.336 162.734H262.568V156.465H259.336V162.734Z" fill="#EBEBEB"/>
<path d="M253.618 162.734H256.85V156.465H253.618V162.734Z" fill="#EBEBEB"/>
<path d="M276.497 172.914H279.729V166.646H276.497V172.914Z" fill="#EBEBEB"/>
<path d="M270.779 172.914H274.011V166.646H270.779V172.914Z" fill="#EBEBEB"/>
<path d="M265.054 172.914H268.286V166.646H265.054V172.914Z" fill="#EBEBEB"/>
<path d="M259.336 172.914H262.568V166.646H259.336V172.914Z" fill="#EBEBEB"/>
<path d="M253.618 172.914H256.85V166.646H253.618V172.914Z" fill="#EBEBEB"/>
<path d="M276.497 183.11H279.729V176.841H276.497V183.11Z" fill="#EBEBEB"/>
<path d="M270.779 183.11H274.011V176.841H270.779V183.11Z" fill="#EBEBEB"/>
<path d="M265.054 183.11H268.286V176.841H265.054V183.11Z" fill="#EBEBEB"/>
<path d="M259.336 183.11H262.568V176.841H259.336V183.11Z" fill="#EBEBEB"/>
<path d="M253.618 183.11H256.85V176.841H253.618V183.11Z" fill="#EBEBEB"/>
<path d="M276.497 193.29H279.729V187.022H276.497V193.29Z" fill="#EBEBEB"/>
<path d="M270.779 193.29H274.011V187.022H270.779V193.29Z" fill="#EBEBEB"/>
<path d="M265.054 193.29H268.286V187.022H265.054V193.29Z" fill="#EBEBEB"/>
<path d="M259.336 193.29H262.568V187.022H259.336V193.29Z" fill="#EBEBEB"/>
<path d="M253.618 193.29H256.85V187.022H253.618V193.29Z" fill="#EBEBEB"/>
<path d="M276.497 203.478H279.729V197.21H276.497V203.478Z" fill="#EBEBEB"/>
<path d="M270.779 203.478H274.011V197.21H270.779V203.478Z" fill="#EBEBEB"/>
<path d="M265.054 203.478H268.286V197.21H265.054V203.478Z" fill="#EBEBEB"/>
<path d="M259.336 203.478H262.568V197.21H259.336V203.478Z" fill="#EBEBEB"/>
<path d="M253.618 203.478H256.85V197.21H253.618V203.478Z" fill="#EBEBEB"/>
<path d="M276.497 213.659H279.729V207.39H276.497V213.659Z" fill="#EBEBEB"/>
<path d="M270.779 213.659H274.011V207.39H270.779V213.659Z" fill="#EBEBEB"/>
<path d="M265.054 213.659H268.286V207.39H265.054V213.659Z" fill="#EBEBEB"/>
<path d="M259.336 213.659H262.568V207.39H259.336V213.659Z" fill="#EBEBEB"/>
<path d="M253.618 213.659H256.85V207.39H253.618V213.659Z" fill="#EBEBEB"/>
<path d="M276.497 223.854H279.729V217.586H276.497V223.854Z" fill="#EBEBEB"/>
<path d="M270.779 223.854H274.011V217.586H270.779V223.854Z" fill="#EBEBEB"/>
<path d="M265.054 223.854H268.286V217.586H265.054V223.854Z" fill="#EBEBEB"/>
<path d="M259.336 223.854H262.568V217.586H259.336V223.854Z" fill="#EBEBEB"/>
<path d="M253.618 223.854H256.85V217.586H253.618V223.854Z" fill="#EBEBEB"/>
<path d="M276.497 234.034H279.729V227.766H276.497V234.034Z" fill="#EBEBEB"/>
<path d="M270.779 234.034H274.011V227.766H270.779V234.034Z" fill="#EBEBEB"/>
<path d="M265.054 234.034H268.286V227.766H265.054V234.034Z" fill="#EBEBEB"/>
<path d="M259.336 234.034H262.568V227.766H259.336V234.034Z" fill="#EBEBEB"/>
<path d="M253.618 234.034H256.85V227.766H253.618V234.034Z" fill="#EBEBEB"/>
<path d="M276.497 244.222H279.729V237.954H276.497V244.222Z" fill="#EBEBEB"/>
<path d="M270.779 244.222H274.011V237.954H270.779V244.222Z" fill="#EBEBEB"/>
<path d="M265.054 244.222H268.286V237.954H265.054V244.222Z" fill="#EBEBEB"/>
<path d="M259.336 244.222H262.568V237.954H259.336V244.222Z" fill="#EBEBEB"/>
<path d="M253.618 244.222H256.85V237.954H253.618V244.222Z" fill="#EBEBEB"/>
<path d="M276.497 254.403H279.729V248.135H276.497V254.403Z" fill="#EBEBEB"/>
<path d="M270.779 254.403H274.011V248.135H270.779V254.403Z" fill="#EBEBEB"/>
<path d="M265.054 254.403H268.286V248.135H265.054V254.403Z" fill="#EBEBEB"/>
<path d="M259.336 254.403H262.568V248.135H259.336V254.403Z" fill="#EBEBEB"/>
<path d="M253.618 254.403H256.85V248.135H253.618V254.403Z" fill="#EBEBEB"/>
<path d="M279.729 258.322H276.497V276.65H279.729V258.322Z" fill="#EBEBEB"/>
<path d="M274.011 258.322H270.779V276.65H274.011V258.322Z" fill="#EBEBEB"/>
<path d="M268.293 258.322H265.061V276.65H268.293V258.322Z" fill="#EBEBEB"/>
<path d="M262.575 258.322H259.344V276.65H262.575V258.322Z" fill="#EBEBEB"/>
<path d="M256.85 258.322H253.618V276.65H256.85V258.322Z" fill="#EBEBEB"/>
<path d="M250.741 117.218H230.28V276.658H250.741V117.218Z" fill="#DBDBDB"/>
<path d="M229.391 117.218H250.741V114.04H229.391V117.218Z" fill="#C7C7C7"/>
<path d="M247.863 121.894H244.631V276.658H247.863V121.894Z" fill="#C7C7C7"/>
<path d="M242.138 121.894H238.906V276.658H242.138V121.894Z" fill="#C7C7C7"/>
<path d="M236.42 121.894H233.188V276.658H236.42V121.894Z" fill="#C7C7C7"/>
<path d="M244.624 132.17H247.855V125.902H244.624V132.17Z" fill="#DBDBDB"/>
<path d="M238.906 132.17H242.138V125.902H238.906V132.17Z" fill="#DBDBDB"/>
<path d="M233.188 132.17H236.42V125.902H233.188V132.17Z" fill="#DBDBDB"/>
<path d="M244.624 142.365H247.855V136.097H244.624V142.365Z" fill="#DBDBDB"/>
<path d="M238.906 142.365H242.138V136.097H238.906V142.365Z" fill="#DBDBDB"/>
<path d="M233.188 142.365H236.42V136.097H233.188V142.365Z" fill="#DBDBDB"/>
<path d="M244.624 152.546H247.855V146.277H244.624V152.546Z" fill="#DBDBDB"/>
<path d="M238.906 152.546H242.138V146.277H238.906V152.546Z" fill="#DBDBDB"/>
<path d="M233.188 152.546H236.42V146.277H233.188V152.546Z" fill="#DBDBDB"/>
<path d="M244.624 162.734H247.855V156.465H244.624V162.734Z" fill="#DBDBDB"/>
<path d="M238.906 162.734H242.138V156.465H238.906V162.734Z" fill="#DBDBDB"/>
<path d="M233.188 162.734H236.42V156.465H233.188V162.734Z" fill="#DBDBDB"/>
<path d="M244.624 172.914H247.855V166.646H244.624V172.914Z" fill="#DBDBDB"/>
<path d="M238.906 172.914H242.138V166.646H238.906V172.914Z" fill="#DBDBDB"/>
<path d="M233.188 172.914H236.42V166.646H233.188V172.914Z" fill="#DBDBDB"/>
<path d="M244.624 183.11H247.855V176.841H244.624V183.11Z" fill="#DBDBDB"/>
<path d="M238.906 183.11H242.138V176.841H238.906V183.11Z" fill="#DBDBDB"/>
<path d="M233.188 183.11H236.42V176.841H233.188V183.11Z" fill="#DBDBDB"/>
<path d="M244.624 193.29H247.855V187.022H244.624V193.29Z" fill="#DBDBDB"/>
<path d="M238.906 193.29H242.138V187.022H238.906V193.29Z" fill="#DBDBDB"/>
<path d="M233.188 193.29H236.42V187.022H233.188V193.29Z" fill="#DBDBDB"/>
<path d="M244.624 203.478H247.855V197.21H244.624V203.478Z" fill="#DBDBDB"/>
<path d="M238.906 203.478H242.138V197.21H238.906V203.478Z" fill="#DBDBDB"/>
<path d="M233.188 203.478H236.42V197.21H233.188V203.478Z" fill="#DBDBDB"/>
<path d="M244.624 213.659H247.855V207.39H244.624V213.659Z" fill="#DBDBDB"/>
<path d="M238.906 213.659H242.138V207.39H238.906V213.659Z" fill="#DBDBDB"/>
<path d="M233.188 213.659H236.42V207.39H233.188V213.659Z" fill="#DBDBDB"/>
<path d="M244.624 223.854H247.855V217.586H244.624V223.854Z" fill="#DBDBDB"/>
<path d="M238.906 223.854H242.138V217.586H238.906V223.854Z" fill="#DBDBDB"/>
<path d="M233.188 223.854H236.42V217.586H233.188V223.854Z" fill="#DBDBDB"/>
<path d="M244.624 234.034H247.855V227.766H244.624V234.034Z" fill="#DBDBDB"/>
<path d="M238.906 234.034H242.138V227.766H238.906V234.034Z" fill="#DBDBDB"/>
<path d="M233.188 234.034H236.42V227.766H233.188V234.034Z" fill="#DBDBDB"/>
<path d="M244.624 244.222H247.855V237.954H244.624V244.222Z" fill="#DBDBDB"/>
<path d="M238.906 244.222H242.138V237.954H238.906V244.222Z" fill="#DBDBDB"/>
<path d="M233.188 244.222H236.42V237.954H233.188V244.222Z" fill="#DBDBDB"/>
<path d="M244.624 254.403H247.855V248.135H244.624V254.403Z" fill="#DBDBDB"/>
<path d="M238.906 254.403H242.138V248.135H238.906V254.403Z" fill="#DBDBDB"/>
<path d="M233.188 254.403H236.42V248.135H233.188V254.403Z" fill="#DBDBDB"/>
<path d="M247.863 258.322H244.631V276.65H247.863V258.322Z" fill="#DBDBDB"/>
<path d="M242.138 258.322H238.906V276.65H242.138V258.322Z" fill="#DBDBDB"/>
<path d="M236.42 258.322H233.188V276.65H236.42V258.322Z" fill="#DBDBDB"/>
<path d="M149.862 182.471H111.555V276.717H149.862V182.471Z" fill="#EBEBEB"/>
<path d="M111.555 182.478H150.781V179.3H111.555V182.478Z" fill="#C7C7C7"/>
<path d="M146.396 187.154H142.517V276.717H146.396V187.154Z" fill="white"/>
<path d="M139.526 187.154H135.639V276.717H139.526V187.154Z" fill="white"/>
<path d="M132.648 187.154H128.768V276.717H132.648V187.154Z" fill="white"/>
<path d="M125.778 187.154H121.89V276.717H125.778V187.154Z" fill="white"/>
<path d="M118.9 187.154H115.02V276.717H118.9V187.154Z" fill="white"/>
<path d="M142.517 197.43H146.396V191.162H142.517V197.43Z" fill="#EBEBEB"/>
<path d="M135.646 197.43H139.526V191.162H135.646V197.43Z" fill="#EBEBEB"/>
<path d="M128.768 197.43H132.648V191.162H128.768V197.43Z" fill="#EBEBEB"/>
<path d="M121.89 197.43H125.77V191.162H121.89V197.43Z" fill="#EBEBEB"/>
<path d="M115.02 197.43H118.9V191.162H115.02V197.43Z" fill="#EBEBEB"/>
<path d="M142.517 207.618H146.396V201.349H142.517V207.618Z" fill="#EBEBEB"/>
<path d="M135.646 207.618H139.526V201.349H135.646V207.618Z" fill="#EBEBEB"/>
<path d="M128.768 207.618H132.648V201.349H128.768V207.618Z" fill="#EBEBEB"/>
<path d="M121.89 207.618H125.77V201.349H121.89V207.618Z" fill="#EBEBEB"/>
<path d="M115.02 207.618H118.9V201.349H115.02V207.618Z" fill="#EBEBEB"/>
<path d="M142.517 217.798H146.396V211.53H142.517V217.798Z" fill="#EBEBEB"/>
<path d="M135.646 217.798H139.526V211.53H135.646V217.798Z" fill="#EBEBEB"/>
<path d="M128.768 217.798H132.648V211.53H128.768V217.798Z" fill="#EBEBEB"/>
<path d="M121.89 217.798H125.77V211.53H121.89V217.798Z" fill="#EBEBEB"/>
<path d="M115.02 217.798H118.9V211.53H115.02V217.798Z" fill="#EBEBEB"/>
<path d="M142.517 227.994H146.396V221.725H142.517V227.994Z" fill="#EBEBEB"/>
<path d="M135.646 227.994H139.526V221.725H135.646V227.994Z" fill="#EBEBEB"/>
<path d="M128.768 227.994H132.648V221.725H128.768V227.994Z" fill="#EBEBEB"/>
<path d="M121.89 227.994H125.77V221.725H121.89V227.994Z" fill="#EBEBEB"/>
<path d="M115.02 227.994H118.9V221.725H115.02V227.994Z" fill="#EBEBEB"/>
<path d="M142.517 238.174H146.396V231.906H142.517V238.174Z" fill="#EBEBEB"/>
<path d="M135.646 238.174H139.526V231.906H135.646V238.174Z" fill="#EBEBEB"/>
<path d="M128.768 238.174H132.648V231.906H128.768V238.174Z" fill="#EBEBEB"/>
<path d="M121.89 238.174H125.77V231.906H121.89V238.174Z" fill="#EBEBEB"/>
<path d="M115.02 238.174H118.9V231.906H115.02V238.174Z" fill="#EBEBEB"/>
<path d="M142.517 248.362H146.396V242.094H142.517V248.362Z" fill="#EBEBEB"/>
<path d="M135.646 248.362H139.526V242.094H135.646V248.362Z" fill="#EBEBEB"/>
<path d="M128.768 248.362H132.648V242.094H128.768V248.362Z" fill="#EBEBEB"/>
<path d="M121.89 248.362H125.77V242.094H121.89V248.362Z" fill="#EBEBEB"/>
<path d="M115.02 248.362H118.9V242.094H115.02V248.362Z" fill="#EBEBEB"/>
<path d="M142.517 258.543H146.396V252.274H142.517V258.543Z" fill="#EBEBEB"/>
<path d="M135.646 258.543H139.526V252.274H135.646V258.543Z" fill="#EBEBEB"/>
<path d="M128.768 258.543H132.648V252.274H128.768V258.543Z" fill="#EBEBEB"/>
<path d="M121.89 258.543H125.77V252.274H121.89V258.543Z" fill="#EBEBEB"/>
<path d="M115.02 258.543H118.9V252.274H115.02V258.543Z" fill="#EBEBEB"/>
<path d="M142.517 268.738H146.396V262.47H142.517V268.738Z" fill="#EBEBEB"/>
<path d="M135.646 268.738H139.526V262.47H135.646V268.738Z" fill="#EBEBEB"/>
<path d="M128.768 268.738H132.648V262.47H128.768V268.738Z" fill="#EBEBEB"/>
<path d="M121.89 268.738H125.77V262.47H121.89V268.738Z" fill="#EBEBEB"/>
<path d="M115.02 268.738H118.9V262.47H115.02V268.738Z" fill="#EBEBEB"/>
<path d="M146.396 272.65H142.517V276.717H146.396V272.65Z" fill="#EBEBEB"/>
<path d="M139.526 272.65H135.639V276.717H139.526V272.65Z" fill="#EBEBEB"/>
<path d="M132.648 272.65H128.768V276.717H132.648V272.65Z" fill="#EBEBEB"/>
<path d="M125.778 272.65H121.89V276.717H125.778V272.65Z" fill="#EBEBEB"/>
<path d="M118.9 272.65H115.02V276.717H118.9V272.65Z" fill="#EBEBEB"/>
<path d="M111.555 182.471H86.9659V276.717H111.555V182.471Z" fill="#DBDBDB"/>
<path d="M85.9037 182.478H111.555V179.3H85.9037V182.478Z" fill="#C7C7C7"/>
<path d="M108.097 187.154H104.21V276.717H108.097V187.154Z" fill="#C7C7C7"/>
<path d="M101.219 187.154H97.3393V276.717H101.219V187.154Z" fill="#C7C7C7"/>
<path d="M94.3486 187.154H90.4614V276.717H94.3486V187.154Z" fill="#C7C7C7"/>
<path d="M104.21 197.43H108.089V191.162H104.21V197.43Z" fill="#DBDBDB"/>
<path d="M97.3393 197.43H101.219V191.162H97.3393V197.43Z" fill="#DBDBDB"/>
<path d="M90.4614 197.43H94.3411V191.162H90.4614V197.43Z" fill="#DBDBDB"/>
<path d="M104.21 207.618H108.089V201.349H104.21V207.618Z" fill="#DBDBDB"/>
<path d="M97.3393 207.618H101.219V201.349H97.3393V207.618Z" fill="#DBDBDB"/>
<path d="M90.4614 207.618H94.3411V201.349H90.4614V207.618Z" fill="#DBDBDB"/>
<path d="M104.21 217.798H108.089V211.53H104.21V217.798Z" fill="#DBDBDB"/>
<path d="M97.3393 217.798H101.219V211.53H97.3393V217.798Z" fill="#DBDBDB"/>
<path d="M90.4614 217.798H94.3411V211.53H90.4614V217.798Z" fill="#DBDBDB"/>
<path d="M104.21 227.994H108.089V221.725H104.21V227.994Z" fill="#DBDBDB"/>
<path d="M97.3393 227.994H101.219V221.725H97.3393V227.994Z" fill="#DBDBDB"/>
<path d="M90.4614 227.994H94.3411V221.725H90.4614V227.994Z" fill="#DBDBDB"/>
<path d="M104.21 238.174H108.089V231.906H104.21V238.174Z" fill="#DBDBDB"/>
<path d="M97.3393 238.174H101.219V231.906H97.3393V238.174Z" fill="#DBDBDB"/>
<path d="M90.4614 238.174H94.3411V231.906H90.4614V238.174Z" fill="#DBDBDB"/>
<path d="M104.21 248.362H108.089V242.094H104.21V248.362Z" fill="#DBDBDB"/>
<path d="M97.3393 248.362H101.219V242.094H97.3393V248.362Z" fill="#DBDBDB"/>
<path d="M90.4614 248.362H94.3411V242.094H90.4614V248.362Z" fill="#DBDBDB"/>
<path d="M104.21 258.543H108.089V252.274H104.21V258.543Z" fill="#DBDBDB"/>
<path d="M97.3393 258.543H101.219V252.274H97.3393V258.543Z" fill="#DBDBDB"/>
<path d="M90.4614 258.543H94.3411V252.274H90.4614V258.543Z" fill="#DBDBDB"/>
<path d="M104.21 268.738H108.089V262.47H104.21V268.738Z" fill="#DBDBDB"/>
<path d="M97.3393 268.738H101.219V262.47H97.3393V268.738Z" fill="#DBDBDB"/>
<path d="M90.4614 268.738H94.3411V262.47H90.4614V268.738Z" fill="#DBDBDB"/>
<path d="M108.097 272.65H104.21V276.717H108.097V272.65Z" fill="#DBDBDB"/>
<path d="M101.219 272.65H97.3393V276.717H101.219V272.65Z" fill="#DBDBDB"/>
<path d="M94.3486 272.65H90.4614V276.717H94.3486V272.65Z" fill="#DBDBDB"/>
<path d="M219.349 185.429H235.493V166.851H219.349V185.429Z" fill="#DBDBDB"/>
<path d="M209.104 186.112H219.342V166.851H209.104V186.112Z" fill="#C7C7C7"/>
<path d="M208.433 186.112H218.588V175.058H208.433V186.112Z" fill="#DBDBDB"/>
<path d="M202.098 186.112H208.433V175.058H202.098V186.112Z" fill="#C7C7C7"/>
<path d="M215.583 276.658H241.686V184.225H215.583V276.658Z" fill="#EBEBEB"/>
<path d="M230.483 191.47H238.695V188.203H230.483V191.47Z" fill="white"/>
<path d="M219.982 191.47H228.193V188.203H219.982V191.47Z" fill="white"/>
<path d="M230.483 197.011H238.695V193.745H230.483V197.011Z" fill="white"/>
<path d="M219.982 197.011H228.193V193.745H219.982V197.011Z" fill="white"/>
<path d="M230.483 202.561H238.695V199.294H230.483V202.561Z" fill="white"/>
<path d="M219.982 202.561H228.193V199.294H219.982V202.561Z" fill="white"/>
<path d="M230.483 208.11H238.695V204.843H230.483V208.11Z" fill="white"/>
<path d="M219.982 208.11H228.193V204.843H219.982V208.11Z" fill="white"/>
<path d="M230.483 213.659H238.695V210.392H230.483V213.659Z" fill="white"/>
<path d="M219.982 213.659H228.193V210.392H219.982V213.659Z" fill="white"/>
<path d="M230.483 219.2H238.695V215.934H230.483V219.2Z" fill="white"/>
<path d="M219.982 219.2H228.193V215.934H219.982V219.2Z" fill="white"/>
<path d="M230.483 224.757H238.695V221.49H230.483V224.757Z" fill="white"/>
<path d="M219.982 224.757H228.193V221.49H219.982V224.757Z" fill="white"/>
<path d="M230.483 230.306H238.695V227.039H230.483V230.306Z" fill="white"/>
<path d="M219.982 230.306H228.193V227.039H219.982V230.306Z" fill="white"/>
<path d="M230.483 235.855H238.695V232.588H230.483V235.855Z" fill="white"/>
<path d="M219.982 235.855H228.193V232.588H219.982V235.855Z" fill="white"/>
<path d="M230.483 241.396H238.695V238.13H230.483V241.396Z" fill="white"/>
<path d="M219.982 241.396H228.193V238.13H219.982V241.396Z" fill="white"/>
<path d="M230.483 246.945H238.695V243.679H230.483V246.945Z" fill="white"/>
<path d="M219.982 246.945H228.193V243.679H219.982V246.945Z" fill="white"/>
<path d="M230.483 252.495H238.695V249.228H230.483V252.495Z" fill="white"/>
<path d="M219.982 252.495H228.193V249.228H219.982V252.495Z" fill="white"/>
<path d="M230.483 258.044H238.695V254.777H230.483V258.044Z" fill="white"/>
<path d="M219.982 258.044H228.193V254.777H219.982V258.044Z" fill="white"/>
<path d="M230.483 263.585H238.695V260.319H230.483V263.585Z" fill="white"/>
<path d="M219.982 263.585H228.193V260.319H219.982V263.585Z" fill="white"/>
<path d="M194.429 276.658H215.583V184.225H194.429V276.658Z" fill="#C7C7C7"/>
<path d="M203.288 260.326H196.546V263.593H203.288V260.326Z" fill="#EBEBEB"/>
<path d="M211.906 260.326H205.164V263.593H211.906V260.326Z" fill="#EBEBEB"/>
<path d="M203.288 254.777H196.546V258.044H203.288V254.777Z" fill="#EBEBEB"/>
<path d="M211.906 254.777H205.164V258.044H211.906V254.777Z" fill="#EBEBEB"/>
<path d="M203.288 249.228H196.546V252.495H203.288V249.228Z" fill="#EBEBEB"/>
<path d="M211.906 249.228H205.164V252.495H211.906V249.228Z" fill="#EBEBEB"/>
<path d="M203.288 243.679H196.546V246.946H203.288V243.679Z" fill="#EBEBEB"/>
<path d="M211.906 243.679H205.164V246.946H211.906V243.679Z" fill="#EBEBEB"/>
<path d="M203.288 238.13H196.546V241.396H203.288V238.13Z" fill="#EBEBEB"/>
<path d="M211.906 238.13H205.164V241.396H211.906V238.13Z" fill="#EBEBEB"/>
<path d="M203.288 232.581H196.546V235.847H203.288V232.581Z" fill="#EBEBEB"/>
<path d="M211.906 232.581H205.164V235.847H211.906V232.581Z" fill="#EBEBEB"/>
<path d="M203.288 227.032H196.546V230.298H203.288V227.032Z" fill="#EBEBEB"/>
<path d="M211.906 227.032H205.164V230.298H211.906V227.032Z" fill="#EBEBEB"/>
<path d="M203.288 221.483H196.546V224.749H203.288V221.483Z" fill="#EBEBEB"/>
<path d="M211.906 221.483H205.164V224.749H211.906V221.483Z" fill="#EBEBEB"/>
<path d="M203.288 215.941H196.546V219.208H203.288V215.941Z" fill="#EBEBEB"/>
<path d="M211.906 215.941H205.164V219.208H211.906V215.941Z" fill="#EBEBEB"/>
<path d="M203.288 210.392H196.546V213.659H203.288V210.392Z" fill="#EBEBEB"/>
<path d="M211.906 210.392H205.164V213.659H211.906V210.392Z" fill="#EBEBEB"/>
<path d="M203.288 204.843H196.546V208.11H203.288V204.843Z" fill="#EBEBEB"/>
<path d="M211.906 204.843H205.164V208.11H211.906V204.843Z" fill="#EBEBEB"/>
<path d="M203.288 199.294H196.546V202.56H203.288V199.294Z" fill="#EBEBEB"/>
<path d="M211.906 199.294H205.164V202.56H211.906V199.294Z" fill="#EBEBEB"/>
<path d="M203.288 193.745H196.546V197.011H203.288V193.745Z" fill="#EBEBEB"/>
<path d="M211.906 193.745H205.164V197.011H211.906V193.745Z" fill="#EBEBEB"/>
<path d="M203.288 188.196H196.546V191.462H203.288V188.196Z" fill="#EBEBEB"/>
<path d="M211.906 188.196H205.164V191.462H211.906V188.196Z" fill="#EBEBEB"/>
<path d="M62.6031 276.658H93.3919L93.3919 216.426H62.6031L62.6031 276.658Z" fill="#C7C7C7"/>
<path d="M83.1013 225.337H88.5479V221.645H83.1013V225.337Z" fill="#DBDBDB"/>
<path d="M83.1013 233.212H88.5479V229.52H83.1013V233.212Z" fill="#DBDBDB"/>
<path d="M83.1013 241.096H88.5479V237.404H83.1013V241.096Z" fill="#DBDBDB"/>
<path d="M83.1013 248.971H88.5479V245.279H83.1013V248.971Z" fill="#DBDBDB"/>
<path d="M83.1013 256.855H88.5479V253.162H83.1013V256.855Z" fill="#DBDBDB"/>
<path d="M83.1013 264.745H88.5479V261.053H83.1013V264.745Z" fill="#DBDBDB"/>
<path d="M83.1013 272.621H88.5479V268.929H83.1013V272.621Z" fill="#DBDBDB"/>
<path d="M75.2591 225.337H80.7057V221.645H75.2591V225.337Z" fill="#DBDBDB"/>
<path d="M75.2591 233.212H80.7057V229.52H75.2591V233.212Z" fill="#DBDBDB"/>
<path d="M75.2591 241.096H80.7057V237.404H75.2591V241.096Z" fill="#DBDBDB"/>
<path d="M75.2591 248.971H80.7057V245.279H75.2591V248.971Z" fill="#DBDBDB"/>
<path d="M75.2591 256.855H80.7057V253.162H75.2591V256.855Z" fill="#DBDBDB"/>
<path d="M75.2591 264.745H80.7057V261.053H75.2591V264.745Z" fill="#DBDBDB"/>
<path d="M75.2591 272.621H80.7057V268.929H75.2591V272.621Z" fill="#DBDBDB"/>
<path d="M67.4395 225.337H72.8861V221.645H67.4395V225.337Z" fill="#DBDBDB"/>
<path d="M67.4395 233.212H72.8861V229.52H67.4395V233.212Z" fill="#DBDBDB"/>
<path d="M67.4395 241.096H72.8861V237.404H67.4395V241.096Z" fill="#DBDBDB"/>
<path d="M67.4395 248.971H72.8861V245.279H67.4395V248.971Z" fill="#DBDBDB"/>
<path d="M67.4395 256.855H72.8861V253.162H67.4395V256.855Z" fill="#DBDBDB"/>
<path d="M67.4395 264.745H72.8861V261.053H67.4395V264.745Z" fill="#DBDBDB"/>
<path d="M67.4395 272.621H72.8861V268.929H67.4395V272.621Z" fill="#DBDBDB"/>
<path d="M62.6031 216.426H83.1013V210.15H62.6031V216.426Z" fill="#DBDBDB"/>
<path d="M62.6031 210.15H75.5981V206.267H62.6031V210.15Z" fill="#EBEBEB"/>
<path d="M40.9975 276.658H62.5956L62.5956 216.426H40.9975L40.9975 276.658Z" fill="#A6A6A6"/>
<path d="M47.6419 268.342H43.2048V272.034H47.6419V268.342Z" fill="#C7C7C7"/>
<path d="M47.6419 260.458H43.2048V264.15H47.6419V260.458Z" fill="#C7C7C7"/>
<path d="M47.6419 252.575H43.2048V256.267H47.6419V252.575Z" fill="#C7C7C7"/>
<path d="M47.6419 244.699H43.2048V248.391H47.6419V244.699Z" fill="#C7C7C7"/>
<path d="M47.6419 236.816H43.2048V240.508H47.6419V236.816Z" fill="#C7C7C7"/>
<path d="M47.6419 228.933H43.2048V232.625H47.6419V228.933Z" fill="#C7C7C7"/>
<path d="M47.6419 221.05H43.2048V224.742H47.6419V221.05Z" fill="#C7C7C7"/>
<path d="M54.0227 268.342H49.5855V272.034H54.0227V268.342Z" fill="#C7C7C7"/>
<path d="M54.0227 260.458H49.5855V264.15H54.0227V260.458Z" fill="#C7C7C7"/>
<path d="M54.0227 252.575H49.5855V256.267H54.0227V252.575Z" fill="#C7C7C7"/>
<path d="M54.0227 244.699H49.5855V248.391H54.0227V244.699Z" fill="#C7C7C7"/>
<path d="M54.0227 236.816H49.5855V240.508H54.0227V236.816Z" fill="#C7C7C7"/>
<path d="M54.0227 228.933H49.5855V232.625H54.0227V228.933Z" fill="#C7C7C7"/>
<path d="M54.0227 221.05H49.5855V224.742H54.0227V221.05Z" fill="#C7C7C7"/>
<path d="M60.3883 268.342H55.9512V272.034H60.3883V268.342Z" fill="#C7C7C7"/>
<path d="M60.3883 260.458H55.9512V264.15H60.3883V260.458Z" fill="#C7C7C7"/>
<path d="M60.3883 252.575H55.9512V256.267H60.3883V252.575Z" fill="#C7C7C7"/>
<path d="M60.3883 244.699H55.9512V248.391H60.3883V244.699Z" fill="#C7C7C7"/>
<path d="M60.3883 236.816H55.9512V240.508H60.3883V236.816Z" fill="#C7C7C7"/>
<path d="M60.3883 228.933H55.9512V232.625H60.3883V228.933Z" fill="#C7C7C7"/>
<path d="M60.3883 221.05H55.9512V224.742H60.3883V221.05Z" fill="#C7C7C7"/>
<path d="M44.2745 216.426H62.6031V210.15H44.2745V216.426Z" fill="#C7C7C7"/>
<path d="M52.6667 210.15H62.5956V206.267H52.6667V210.15Z" fill="#DBDBDB"/>
<path d="M424.617 126.496H343.499C343.499 126.496 351.544 105.1 363.921 105.1C376.299 105.1 380.178 119.875 380.178 119.875C380.178 119.875 388.525 111.845 395.388 111.845C402.251 111.845 408.195 122.452 408.195 122.452C408.195 122.452 417.905 116.741 424.617 126.496Z" fill="#EBEBEB"/>
<path d="M325.373 96.248H287.466C287.466 96.248 295.933 84.2838 302.608 84.2838C309.282 84.2838 311.248 92.2623 311.248 92.2623C311.248 92.2623 315.964 88.5409 320.288 89.2016C324.612 89.8621 325.373 96.248 325.373 96.248Z" fill="#EBEBEB"/>
<path d="M107.66 124.918H69.7146C69.7146 124.918 78.1821 112.961 84.8566 112.961C91.5311 112.961 93.5049 120.932 93.5049 120.932C93.5049 120.932 98.2132 117.211 102.545 117.872C106.877 118.532 107.66 124.918 107.66 124.918Z" fill="#EBEBEB"/>
<path d="M18.2243 82.4488H-55.6024C-55.6024 82.4488 -45.4851 60.4288 -34.6673 59.0782C-23.8494 57.7277 -18.6815 75.4171 -18.6815 75.4171C-18.6815 75.4171 -11.7057 69.156 -6.2214 69.156C-0.737133 69.156 3.50414 77.4062 3.50414 77.4062C3.50414 77.4062 14.4576 71.7544 18.2243 82.4488Z" fill="#EBEBEB"/>
<path d="M149.327 41.587H99.4487C99.4487 41.587 108.014 25.6518 117.31 25.439C126.606 25.2261 131.488 37.4986 131.488 37.4986C131.488 37.4986 145.944 26.173 149.327 41.587Z" fill="#EBEBEB"/>
<path d="M-58.5479 276.665H87.1618V238.174H-58.5479V276.665Z" fill="#2B5141"/>
<path opacity="0.1" d="M60.4938 276.665H87.1618V238.174H60.4938V276.665Z" fill="black"/>
<path d="M-50.6153 238.174C-50.6153 238.174 -48.7546 229.733 -45.0482 228.427C-41.3418 227.12 -39.0818 230.915 -39.0818 230.915C-39.0818 230.915 -38.2079 222.841 -32.9497 220.433C-27.6914 218.026 -23.7439 222.966 -23.7439 222.966C-23.7439 222.966 -19.7061 212.726 -12.4967 212.726C-5.28728 212.726 -1.65621 227.678 -1.65621 227.678C-1.65621 227.678 2.60012 223.215 6.96193 225.733C11.3237 228.251 11.3237 238.145 11.3237 238.145L-50.6153 238.174Z" fill="#37474F"/>
<path d="M23.2867 238.174H79.1463C79.1463 238.174 77.3082 230.497 73.6018 229.953C69.8954 229.41 68.1778 232.97 68.1778 232.97C68.1778 232.97 68.3435 222.268 61.3978 220.448C54.452 218.628 48.674 228.082 48.674 228.082C48.674 228.082 44.3423 222.687 38.4287 223.032C32.515 223.377 31.0158 232.288 31.0158 232.288C31.0158 232.288 25.6371 229.19 23.2867 238.174Z" fill="#37474F"/>
<path d="M7.31599 238.174H41.6379C41.6379 238.174 41.5625 233.198 38.1876 231.876C37.2727 231.488 36.2531 231.401 35.2827 231.627C34.3123 231.854 33.4439 232.382 32.8088 233.132C32.8088 233.132 31.4302 224.008 25.1399 224.008C18.8495 224.008 15.8437 231.906 15.8437 231.906C15.3108 231.152 14.5634 230.566 13.6935 230.221C12.8236 229.875 11.869 229.785 10.9471 229.961C7.46666 230.379 7.31599 238.174 7.31599 238.174Z" fill="#455A64"/>
<path d="M282.591 276.665H428.301V238.174H282.591V276.665Z" fill="#2B5141"/>
<path opacity="0.1" d="M401.633 276.665H428.301V238.174H401.633V276.665Z" fill="black"/>
<path d="M290.524 238.174C290.524 238.174 292.377 229.733 296.091 228.427C299.805 227.12 302.058 230.915 302.058 230.915C302.058 230.915 302.932 222.841 308.19 220.433C313.448 218.026 317.395 222.966 317.395 222.966C317.395 222.966 321.426 212.726 328.635 212.726C335.845 212.726 339.483 227.678 339.483 227.678C339.483 227.678 343.732 223.215 348.094 225.733C352.456 228.251 352.493 238.174 352.493 238.174H290.524Z" fill="#37474F"/>
<path d="M364.396 238.174H420.293C420.293 238.174 418.448 230.497 414.749 229.953C411.05 229.41 409.317 232.97 409.317 232.97C409.317 232.97 409.491 222.268 402.537 220.448C395.584 218.628 389.821 228.082 389.821 228.082C389.821 228.082 385.482 222.687 379.576 223.032C373.67 223.377 372.163 232.288 372.163 232.288C372.163 232.288 366.807 229.19 364.396 238.174Z" fill="#37474F"/>
<path d="M348.456 238.174H382.777C382.777 238.174 382.694 233.198 379.32 231.876C378.405 231.488 377.385 231.401 376.415 231.627C375.444 231.854 374.576 232.382 373.941 233.132C373.941 233.132 372.562 224.008 366.279 224.008C359.997 224.008 357.013 231.876 357.013 231.876C356.48 231.123 355.733 230.537 354.863 230.191C353.993 229.846 353.039 229.756 352.117 229.931C348.591 230.379 348.456 238.174 348.456 238.174Z" fill="#455A64"/>
<path d="M234.408 320.375C313.933 320.375 378.401 315.623 378.401 309.761C378.401 303.899 313.933 299.148 234.408 299.148C154.884 299.148 90.4162 303.899 90.4162 309.761C90.4162 315.623 154.884 320.375 234.408 320.375Z" fill="#EBEBEB"/>
<path d="M348.727 59.4819H20.2733C23.5579 44.3321 37.2987 37.5353 37.2987 37.5353H331.731C331.731 37.5353 345.472 44.3321 348.727 59.4819Z" fill="#2B5141"/>
<path d="M133.68 37.572C129.968 44.4598 127.361 51.8613 125.951 59.5186H117.536C118.821 51.9402 121.128 44.5607 124.399 37.572H133.68Z" fill="#263238"/>
<path d="M251.464 59.4819H243.057C241.655 51.8349 239.051 44.4446 235.335 37.572H244.601C247.869 44.5491 250.176 51.9161 251.464 59.4819Z" fill="#263238"/>
<path opacity="0.1" d="M348.727 59.4819H20.2733C20.8363 56.8822 21.7455 54.3653 22.9778 51.9951L344.44 49.2426C346.489 52.3768 347.941 55.8455 348.727 59.4819Z" fill="black"/>
<path d="M26.4431 59.4819H15.9944V291.419H26.4431V59.4819Z" fill="#263238"/>
<path d="M53.7213 79.2559H43.2726V276.739H53.7213V79.2559Z" fill="#263238"/>
<path d="M131.511 79.2559H123.322V276.739H131.511V79.2559Z" fill="#263238"/>
<path d="M245.678 79.2559H237.489V276.739H245.678V79.2559Z" fill="#263238"/>
<path d="M342.564 291.419H353.013L353.013 59.4819H342.564V291.419Z" fill="#263238"/>
<path d="M315.279 276.739H325.727V79.2559H315.279V276.739Z" fill="#263238"/>
<path d="M354.512 55.0779H14.4877L11.4744 61.06L41.7659 81.612L44.7793 82.4855H324.221L327.234 81.612L357.526 61.06L354.512 55.0779ZM322.496 75.6299H46.5044L26.3 61.9261H342.7L322.496 75.6299Z" fill="#263238"/>
<path opacity="0.4" d="M342.677 61.9261L322.496 75.5932H46.5044L26.3226 61.9261H342.677Z" fill="#2B5141"/>
<path d="M124.474 81.4212L117.973 57.2432L125.356 56.0982L131.857 80.2835L124.474 81.4212Z" fill="#263238"/>
<path d="M244.526 81.4212L237.143 80.2835L243.644 56.0982L251.027 57.2432L244.526 81.4212Z" fill="#263238"/>
<path opacity="0.7" d="M320.552 232.772L342.557 246.806V115.794L320.552 121.666V232.772Z" fill="#DBDBDB"/>
<path opacity="0.7" d="M48.3275 232.772L26.3226 246.806V115.794L48.3275 121.666V232.772Z" fill="#DBDBDB"/>
<path d="M237.489 165.361H53.7213V179.939H237.489V165.361Z" fill="#2B5141"/>
<path opacity="0.2" d="M237.489 165.361H53.7213V179.939H237.489V165.361Z" fill="black"/>
<path d="M237.489 186.794H53.7213V201.371H237.489V186.794Z" fill="#2B5141"/>
<path opacity="0.2" d="M237.489 186.794H53.7213V201.371H237.489V186.794Z" fill="black"/>
<path d="M260.089 222.709H31.1213L53.7213 208.132H237.489L260.089 222.709Z" fill="#2B5141"/>
<path opacity="0.2" d="M260.089 222.709H31.1213L53.7213 208.132H237.489L260.089 222.709Z" fill="black"/>
<path d="M260.089 222.709H31.1213V227.355H260.089V222.709Z" fill="#2B5141"/>
<path d="M155.354 152.311C164.318 166.837 175.694 190.655 178.149 195.088C179.799 198.09 162.857 208.139 162.051 205.937C161.026 203.111 151.707 170.382 148.958 155.291C147.587 147.731 152.657 147.929 155.354 152.311Z" fill="#774442"/>
<path d="M161.493 203.456C161.998 206.208 164.19 211.706 165.674 212.499C167.158 213.292 174.714 212.77 178.481 212.602C182.248 212.433 183.001 211.369 182.865 210.091C182.73 208.814 174.744 208.932 174.744 208.932C174.744 208.932 185.555 211.435 188.259 211.809C190.964 212.183 197.216 213.424 198.052 211.214C198.407 210.216 196.666 209.306 196.666 209.306C196.666 209.306 199.295 209.93 199.68 208.653C200.086 207.185 197.985 206.502 197.985 206.502C197.985 206.502 199.619 206.752 199.604 205.585C199.567 202.979 189.359 202.142 189.359 202.142C189.359 202.142 197.299 205.489 197.45 203.353C197.661 200.417 181.592 197.87 179.875 196.659C178.749 195.814 177.796 194.771 177.065 193.584L161.493 203.456Z" fill="#774442"/>
<path d="M182.865 210.708C182.88 210.525 182.851 210.341 182.779 210.171C182.707 210.001 182.594 209.851 182.451 209.732C182.168 209.498 181.847 209.312 181.502 209.181C180.783 208.921 180.042 208.725 179.287 208.594C177.78 208.286 176.221 208.095 174.669 207.772C176.251 207.68 177.838 207.783 179.392 208.08C180.178 208.219 180.939 208.466 181.652 208.814C182.025 208.99 182.356 209.24 182.624 209.548C182.765 209.704 182.861 209.893 182.903 210.097C182.946 210.3 182.932 210.511 182.865 210.708Z" fill="#263238"/>
<path d="M196.651 209.269C195.544 209.056 194.444 208.8 193.352 208.535C192.259 208.271 191.167 208.007 190.082 207.735L186.82 206.898C185.735 206.62 184.651 206.341 183.551 206.076C184.68 206.143 185.803 206.288 186.911 206.509C188.026 206.7 189.118 206.965 190.218 207.243C191.318 207.522 192.395 207.816 193.465 208.161C194.534 208.506 195.604 208.851 196.651 209.269Z" fill="#263238"/>
<path d="M186.007 203.368C187.044 203.387 188.079 203.481 189.103 203.647C190.13 203.803 191.149 204.011 192.154 204.271C193.158 204.526 194.147 204.837 195.114 205.203C196.085 205.561 197.028 205.982 197.939 206.465C196.945 206.179 195.973 205.856 194.979 205.585C193.984 205.313 193.005 205.027 192.011 204.777C191.016 204.528 190.022 204.278 188.997 204.043C187.973 203.808 187.016 203.588 186.007 203.368Z" fill="#263238"/>
<path d="M187.461 200.821C189.139 200.872 190.803 201.138 192.41 201.614C194.026 202.053 195.574 202.703 197.013 203.544C195.408 203.06 193.849 202.553 192.259 202.113C190.67 201.672 189.08 201.254 187.461 200.821Z" fill="#263238"/>
<path d="M164.348 166.205L150.864 168.958C149.712 163.419 148.897 157.819 148.423 152.186C147.926 144.516 151.738 145.932 155.685 151.364C159.632 156.796 164.348 166.205 164.348 166.205Z" fill="#2B5141"/>
<path d="M151.142 166.558C154.865 165.601 158.637 164.834 162.442 164.26C162.452 164.264 162.461 164.271 162.466 164.279C162.472 164.288 162.476 164.298 162.476 164.308C162.476 164.318 162.472 164.328 162.466 164.337C162.461 164.345 162.452 164.352 162.442 164.356C158.719 165.315 154.948 166.084 151.142 166.661C151.097 166.668 151.082 166.572 151.142 166.558Z" fill="#263238"/>
<path opacity="0.1" d="M160.755 166.94L150.871 168.958C149.715 163.419 148.898 157.819 148.423 152.186C148.227 149.089 148.724 147.474 149.651 147.004L160.755 166.94Z" fill="black"/>
<path d="M171.309 310.37C169.802 310.224 132.671 293.958 131.661 292.468C131.269 291.903 133.386 286.493 136.136 280.027C136.724 278.632 137.349 277.194 137.989 275.74C142.125 266.272 146.08 257.625 146.08 257.625L171.626 267.167L162.179 286.251L160.115 290.45C160.115 290.45 171.475 302.876 172.409 304.631C173.343 306.385 172.801 310.517 171.309 310.37Z" fill="#774442"/>
<path d="M171.309 310.37C169.802 310.224 132.671 293.958 131.661 292.468C131.187 291.778 134.411 283.939 137.989 275.74L162.179 286.251L160.115 290.45C160.115 290.45 171.475 302.876 172.409 304.631C173.343 306.385 172.801 310.517 171.309 310.37Z" fill="white"/>
<path d="M171.309 310.37C169.802 310.224 132.671 293.958 131.661 292.468C131.269 291.903 133.386 286.493 136.136 280.027L160.115 290.45C160.115 290.45 171.475 302.876 172.409 304.631C173.343 306.385 172.801 310.517 171.309 310.37Z" fill="#2B5141"/>
<path d="M171.445 308.69C165.29 305.812 140.174 294.78 133.861 292.395C133.808 292.395 133.793 292.395 133.861 292.431C139.888 295.412 165.102 306.245 171.415 308.792C171.535 308.844 171.573 308.748 171.445 308.69Z" fill="#263238"/>
<path d="M170.616 302.282C169.932 301.962 169.187 301.783 168.429 301.756C167.671 301.73 166.915 301.856 166.209 302.128C164.934 302.606 163.9 303.548 163.324 304.755C163.324 304.792 163.377 304.829 163.399 304.792C164.166 303.684 165.281 302.848 166.576 302.409C167.872 301.969 169.279 301.951 170.586 302.355C170.631 302.37 170.669 302.304 170.616 302.282Z" fill="#263238"/>
<path d="M162.247 292.108C159.776 290.985 156.491 290.574 154.02 291.881C153.93 291.932 154.02 292.064 154.095 292.064C156.788 291.905 159.49 292.026 162.156 292.424C162.195 292.425 162.233 292.414 162.264 292.391C162.295 292.369 162.318 292.337 162.328 292.301C162.338 292.264 162.336 292.226 162.321 292.191C162.306 292.156 162.28 292.127 162.247 292.108Z" fill="#263238"/>
<path d="M163.836 293.679C161.358 292.556 158.073 292.153 155.61 293.459C155.512 293.51 155.61 293.643 155.677 293.635C158.37 293.475 161.073 293.598 163.738 294.002C163.781 294.011 163.826 294.004 163.863 293.983C163.901 293.961 163.929 293.926 163.941 293.885C163.954 293.844 163.95 293.8 163.93 293.762C163.911 293.724 163.877 293.694 163.836 293.679Z" fill="#263238"/>
<path d="M165.426 295.257C162.947 294.134 159.663 293.723 157.199 295.03C157.101 295.081 157.199 295.213 157.267 295.206C159.96 295.046 162.662 295.169 165.328 295.573C165.367 295.576 165.406 295.566 165.439 295.544C165.471 295.522 165.495 295.49 165.507 295.454C165.518 295.417 165.516 295.377 165.502 295.342C165.487 295.306 165.46 295.276 165.426 295.257Z" fill="#263238"/>
<path d="M167.008 296.828C164.537 295.705 161.245 295.294 158.781 296.601C158.691 296.652 158.781 296.784 158.857 296.784C161.549 296.625 164.251 296.746 166.917 297.144C166.956 297.145 166.994 297.133 167.025 297.111C167.056 297.089 167.079 297.057 167.089 297.02C167.099 296.984 167.097 296.945 167.082 296.911C167.068 296.876 167.041 296.847 167.008 296.828Z" fill="#263238"/>
<path d="M138.102 287.33C135.307 286.112 133.364 290.347 136.166 291.565C138.969 292.784 140.912 288.549 138.102 287.33Z" fill="white"/>
<path d="M167.927 286.809C167.136 285.238 165.087 285.539 163.821 286.259C161.67 287.525 159.9 289.323 158.691 291.47C158.691 291.521 158.691 291.558 158.736 291.58C158.736 291.771 158.849 292.013 159.09 291.969C161.418 291.551 163.957 291.382 166.081 290.281C167.332 289.635 168.68 288.299 167.927 286.809ZM162.488 290.633C161.35 290.861 160.228 291.044 159.075 291.316C160.044 290.272 161.067 289.277 162.141 288.336C162.664 287.883 163.221 287.469 163.806 287.095C164.717 286.53 168.1 285.569 167.128 288.321C166.601 289.84 163.851 290.354 162.495 290.633H162.488Z" fill="#263238"/>
<path d="M152.107 289.664C154.126 290.934 156.627 291.316 158.887 291.925C159.12 291.991 159.286 291.764 159.271 291.565C159.316 291.565 159.354 291.521 159.331 291.463C158.311 289.224 156.706 287.285 154.676 285.84C153.478 285.018 151.466 284.548 150.54 286.046C149.613 287.543 150.909 288.916 152.107 289.664ZM151.24 287.624C150.487 284.798 153.802 286.038 154.653 286.677C155.203 287.097 155.722 287.556 156.205 288.05C157.191 289.08 158.124 290.158 159 291.279C157.9 290.912 156.74 290.641 155.655 290.31C154.314 289.921 151.625 289.18 151.225 287.624H151.24Z" fill="#263238"/>
<path d="M138.547 273.516L166.525 285.84C166.525 285.84 199.167 228.764 200.034 209.695C200.787 193.474 189.186 183.308 151.707 193.804L142.524 193.914V200.087C146.555 200.608 167.648 210.216 167.52 210.466C148.024 248.847 138.547 273.516 138.547 273.516Z" fill="#37474F"/>
<path d="M172.115 203.617C170.985 205.085 169.938 206.612 168.936 208.168C162.909 205.57 148.513 200.16 144.325 198.891C144.257 198.891 144.257 199.001 144.325 199.008C150.924 199.404 167.173 207.632 168.891 208.234C167.693 210.106 166.556 212.022 165.471 213.952C163.442 217.565 161.617 221.282 160.002 225.087C159.105 227.186 158.224 229.307 157.455 231.458C157.455 231.524 157.538 231.561 157.561 231.502C160.981 224.074 164.712 216.805 168.755 209.695C169.9 207.691 171.091 205.709 172.206 203.691C172.243 203.632 172.16 203.566 172.115 203.617Z" fill="#263238"/>
<path d="M167.173 279.249C165.546 278.632 163.964 277.862 162.367 277.157L157.561 275.058C154.359 273.663 143.3 269.186 142.381 268.988C142.328 268.988 142.298 269.061 142.343 269.09C143.052 269.545 150.186 272.636 151.805 273.311C155.03 274.654 158.292 275.902 161.546 277.186L164.348 278.251C165.275 278.61 166.232 278.941 167.143 279.337C167.173 279.359 167.173 279.271 167.173 279.249Z" fill="#263238"/>
<path d="M171.98 206.436C169.765 210.524 167.889 214.796 165.953 219.024C164.017 223.252 162.186 227.458 160.386 231.708C156.8 240.171 153.455 244.839 150.351 253.478C148.596 258.374 147.617 262 146.012 266.947C146.012 267.013 146.11 267.042 146.133 266.947C149.093 258.205 151.64 250.843 154.992 242.241C158.344 233.638 161.892 229.029 165.652 220.624C166.706 218.261 167.779 215.905 168.868 213.556C169.961 211.2 171.128 208.866 172.108 206.487C172.168 206.392 172.032 206.341 171.98 206.436Z" fill="#263238"/>
<path d="M210.806 209.277C210.113 208.021 180.357 181.076 178.594 180.761C178.39 180.717 168.951 190.053 168.951 190.053C168.612 190.706 147.73 192.945 147.73 192.945L151.496 214.15L188.734 206.965C188.734 206.965 194.301 208.998 199.348 210.561C201.506 211.299 203.707 211.909 205.94 212.389C207.891 212.536 211.507 210.517 210.806 209.277Z" fill="#774442"/>
<path d="M205.94 212.389C203.706 211.909 201.505 211.297 199.348 210.554C194.308 208.99 188.734 206.957 188.734 206.957L180.447 208.557L164.07 190.692C167.015 190.692 168.861 190.251 168.966 190.038C168.966 190.038 178.406 180.709 178.609 180.753C180.372 181.069 210.128 208.014 210.821 209.269C211.515 210.524 207.891 212.536 205.94 212.389Z" fill="white"/>
<path d="M211.032 209.277C210.279 207.999 180.447 181.091 178.639 180.768C177.961 180.636 173.253 184.724 168.951 190.053L188.267 207.376C188.267 207.376 204.087 212.359 206.083 212.514C208.079 212.668 211.756 210.561 211.032 209.277Z" fill="#2B5141"/>
<path d="M209.503 210.062C204.38 205.658 184.153 187.492 179.438 182.772C179.438 182.706 179.438 182.735 179.438 182.772C184.613 187.014 204.689 205.357 209.571 210.011C209.676 210.062 209.609 210.15 209.503 210.062Z" fill="#263238"/>
<path d="M203.13 211.824C202.559 211.337 202.097 210.74 201.776 210.07C201.454 209.4 201.279 208.673 201.262 207.933C201.217 206.604 201.703 205.309 202.618 204.322C202.618 204.322 202.701 204.322 202.678 204.373C201.93 205.493 201.575 206.819 201.668 208.153C201.76 209.486 202.294 210.753 203.19 211.765C203.228 211.802 203.168 211.86 203.13 211.824Z" fill="#263238"/>
<path d="M190.263 208.3C188.237 206.524 186.564 203.742 186.835 201.026C186.835 200.916 187.001 200.931 187.031 201.026C187.935 203.499 189.107 205.871 190.527 208.102C190.54 208.136 190.543 208.174 190.533 208.209C190.523 208.244 190.501 208.276 190.471 208.298C190.442 208.32 190.405 208.333 190.368 208.333C190.33 208.334 190.293 208.322 190.263 208.3Z" fill="#263238"/>
<path d="M192.365 209.108C190.338 207.332 188.666 204.55 188.937 201.826C188.937 201.724 189.103 201.738 189.133 201.826C190.037 204.299 191.209 206.671 192.628 208.902C192.645 208.937 192.65 208.976 192.641 209.013C192.633 209.05 192.611 209.083 192.581 209.107C192.55 209.131 192.512 209.144 192.473 209.144C192.434 209.144 192.396 209.131 192.365 209.108Z" fill="#263238"/>
<path d="M194.474 209.915C192.44 208.139 190.775 205.357 191.046 202.634C191.046 202.531 191.205 202.546 191.235 202.634C192.14 205.108 193.314 207.48 194.738 209.71C194.755 209.744 194.759 209.783 194.751 209.82C194.742 209.858 194.72 209.891 194.69 209.915C194.659 209.938 194.621 209.952 194.582 209.952C194.543 209.952 194.505 209.939 194.474 209.915Z" fill="#263238"/>
<path d="M196.553 210.723C194.527 208.946 192.854 206.157 193.126 203.441C193.126 203.339 193.291 203.353 193.322 203.441C194.224 205.915 195.395 208.287 196.817 210.517C196.834 210.551 196.838 210.59 196.83 210.628C196.821 210.665 196.8 210.698 196.769 210.722C196.738 210.746 196.7 210.759 196.661 210.759C196.622 210.759 196.584 210.746 196.553 210.723Z" fill="#263238"/>
<path d="M176.311 188.548C174.051 186.515 177.306 183.117 179.551 185.15C181.796 187.183 178.556 190.582 176.311 188.548Z" fill="white"/>
<path d="M190.037 212.455C190.248 210.121 189.412 207.787 188.899 205.541C188.884 205.491 188.857 205.446 188.82 205.409C188.784 205.372 188.738 205.344 188.688 205.327C188.638 205.311 188.584 205.306 188.532 205.314C188.48 205.322 188.43 205.341 188.387 205.372C188.381 205.363 188.373 205.355 188.363 205.35C188.353 205.345 188.342 205.342 188.331 205.342C188.32 205.342 188.309 205.345 188.299 205.35C188.289 205.355 188.28 205.363 188.274 205.372C186.726 207.288 185.721 209.565 185.359 211.978C185.17 213.394 185.69 215.347 187.483 215.442C189.276 215.538 189.916 213.82 190.037 212.455ZM188.598 214.158C186.383 216.103 185.961 212.69 186.142 211.662C186.267 210.993 186.44 210.333 186.662 209.688C187.13 208.358 187.668 207.052 188.274 205.775C188.455 206.891 188.741 207.977 188.967 209.1C189.231 210.422 189.819 213.086 188.598 214.158Z" fill="#263238"/>
<path d="M179.98 200.204C178.933 201.621 180.161 203.243 181.404 203.992C183.561 205.245 186.019 205.924 188.53 205.959C188.591 205.959 188.606 205.915 188.606 205.871C188.656 205.857 188.703 205.832 188.742 205.798C188.781 205.763 188.811 205.72 188.829 205.672C188.848 205.624 188.854 205.572 188.848 205.521C188.842 205.47 188.823 205.422 188.794 205.379C187.325 203.573 185.984 201.474 183.988 200.16C182.82 199.397 180.974 198.861 179.98 200.204ZM186.007 203.089C186.76 203.962 187.446 204.858 188.221 205.702C186.822 205.358 185.442 204.944 184.086 204.462C183.433 204.221 182.799 203.937 182.187 203.61C181.246 203.096 178.797 200.674 181.743 200.182C183.34 199.933 185.095 202.054 186.007 203.089Z" fill="#263238"/>
<path d="M146.253 193.914H129.22C129.22 193.914 111.201 189.194 98.2283 190.919C81.4591 193.158 85.3387 215.956 98.8837 220.441C126.35 229.52 188.53 209.666 188.53 209.666L163.211 188.086C163.211 188.086 133.228 191.132 116.79 198.524L146.291 202.436L146.253 193.914Z" fill="#37474F"/>
<path d="M179.227 208.807C177.908 207.684 176.695 206.429 175.46 205.24L171.693 201.672C169.177 199.302 160.333 191.433 159.55 190.934C159.497 190.897 159.437 190.971 159.474 191.015C159.979 191.675 165.614 196.953 166.895 198.12C169.456 200.454 172.093 202.715 174.699 204.997C175.452 205.651 176.206 206.282 176.959 206.928C177.712 207.574 178.466 208.198 179.219 208.873C179.227 208.917 179.227 208.844 179.227 208.807Z" fill="#263238"/>
<path d="M157.041 191.301C155.482 191.506 153.937 191.837 152.385 192.108L147.73 192.945C144.631 193.503 141.535 194.09 138.441 194.707C132.279 195.925 126.154 197.32 120.09 198.964C116.67 199.896 113.31 200.931 109.882 201.937C109.815 201.937 109.882 202.061 109.928 202.039C115.917 200.087 122.109 198.663 128.256 197.29C134.403 195.918 140.46 194.663 146.585 193.452C148.317 193.107 150.043 192.769 151.775 192.439C153.508 192.108 155.316 191.822 157.049 191.404C157.116 191.389 157.109 191.294 157.041 191.301Z" fill="#263238"/>
<path d="M164.68 189.224C164.68 189.224 164.635 189.143 164.612 189.114C164.589 189.084 164.574 189.048 164.559 189.018L164.424 188.813C164.326 188.666 164.213 188.534 164.107 188.402C164.002 188.27 163.881 188.137 163.761 188.013C163.632 187.892 163.496 187.78 163.354 187.675H163.309C163.309 187.675 163.309 187.675 163.271 187.675H163.226C160.665 187.983 143.496 190.75 140.965 191.235C138.434 191.719 135.872 192.255 133.334 192.813C128.27 193.915 123.266 195.265 118.342 196.857L116.964 197.327H116.64L115.886 197.386C115.412 197.445 114.945 197.518 114.478 197.591C113.491 197.738 112.527 197.929 111.54 198.046C111.53 198.05 111.521 198.057 111.516 198.065C111.51 198.074 111.507 198.084 111.507 198.094C111.507 198.104 111.51 198.114 111.516 198.123C111.521 198.131 111.53 198.138 111.54 198.142C112.534 198.054 113.544 198.032 114.553 197.944L115.419 197.863C113.634 198.516 111.871 199.206 110.108 199.925C110.056 199.925 110.108 200.036 110.108 200.014C112.527 199.111 114.997 198.333 117.476 197.613C119.954 196.894 122.403 196.197 124.896 195.58C129.929 194.332 135.014 193.246 140.106 192.226C142.961 191.661 160.484 188.879 163.294 188.137H163.331C163.37 188.196 163.416 188.25 163.467 188.299C163.587 188.424 163.716 188.548 163.844 188.666C163.972 188.783 164.092 188.893 164.22 188.996L164.424 189.15L164.522 189.224C164.56 189.247 164.595 189.274 164.627 189.304C164.65 189.334 164.733 189.268 164.68 189.224Z" fill="#263238"/>
<path d="M162.013 216.734C164.205 216.088 166.412 215.472 168.62 214.877C170.827 214.283 173.027 213.695 175.242 213.115L178.549 212.235L181.863 211.369C182.963 211.075 184.063 210.774 185.155 210.458C186.249 210.174 187.328 209.836 188.387 209.445L188.334 209.849C186.662 208.381 185.017 206.872 183.4 205.32C185.178 206.686 186.936 208.073 188.673 209.482L188.975 209.732L188.613 209.886C186.48 210.734 184.294 211.447 182.067 212.022L178.76 212.939L175.43 213.776C173.215 214.327 170.993 214.862 168.755 215.347C166.518 215.831 164.265 216.316 162.013 216.734Z" fill="#263238"/>
<path d="M161.403 189.209C161.403 189.209 143.707 191.301 131.217 193.914C129.107 194.362 118.29 191.528 118.237 191.426C118.086 191.169 125.198 148.92 141.07 144.274C143.586 143.54 147.572 144.112 149.869 146.395C156.672 153.148 161.403 189.209 161.403 189.209Z" fill="#2B5141"/>
<path d="M156.258 168.723C157.52 167.848 158.876 167.11 160.303 166.521C162.186 165.787 166.33 164.657 167.083 164.246L168.349 164.114L161.312 190.016L150.178 193.444L131.209 189.407L136.761 164.84L138.049 164.679C138.049 164.679 140.468 165.288 142.449 165.589C144.43 165.89 151.248 165.794 156.258 168.723Z" fill="white"/>
<path d="M148.543 194.178L154.751 169.252L135.948 164.62L130.155 190.031L148.543 194.178Z" fill="#263238"/>
<path d="M148.543 194.178H151.248L157.485 169.252H154.751L148.543 194.178Z" fill="#455A64"/>
<path d="M151.248 194.178L157.485 169.252L168.883 163.842L161.621 190.229L151.248 194.178Z" fill="#263238"/>
<path d="M134.998 146.688C120.828 154.601 100.503 171.358 101.294 176.269C102.296 182.493 122.282 188.013 127.232 188.504C129.341 188.703 128.339 169.956 126.087 169.692C124.128 169.457 122.418 169.31 122.44 169.046C122.463 168.782 130.674 162.719 137.959 152.487C142.916 145.514 138.004 145.008 134.998 146.688Z" fill="#774442"/>
<path d="M114.139 174.5C116.222 173.258 118.234 171.905 120.165 170.448C123.666 168.221 127.756 167.035 131.936 167.035C136.117 167.035 140.207 168.221 143.707 170.448C147.587 172.841 147.549 176.54 143.067 174.742C139.91 173.479 137.839 172.334 136.693 172.202C136.693 172.202 139.232 176.65 137.929 179.315C136.786 181.64 135.477 183.884 134.012 186.031C133.547 185.858 133.094 185.657 132.656 185.429C132.045 186.434 131.155 187.251 130.089 187.785C129.023 188.318 127.823 188.548 126.629 188.446L114.139 174.5Z" fill="#774442"/>
<path d="M123.811 168.62C126.071 168.804 130.75 169.281 134.464 170.977C138.592 172.856 146.02 177.583 144.566 180.519C143.496 182.684 140.498 181.128 140.498 181.128C140.498 181.128 143.142 183.704 141.741 185.458C140.46 187.051 138.215 185.715 138.215 185.715C138.215 185.715 139.549 187.55 138.012 188.857C136.166 190.42 133.673 186.324 130.396 186.339C129.657 186.346 123.811 168.62 123.811 168.62Z" fill="#774442"/>
<path d="M131.699 174.889C135.202 176.023 138.268 178.168 140.49 181.04C140.543 181.113 140.49 181.194 140.453 181.135C137.797 178.728 134.849 176.645 131.676 174.933C131.676 174.933 131.676 174.889 131.699 174.889Z" fill="#263238"/>
<path d="M129.868 179.006C131.601 179.623 136.008 182.229 138.268 185.649C138.321 185.73 138.268 185.803 138.223 185.745C135.701 183.208 132.89 180.959 129.846 179.043C129.846 179.043 129.846 178.999 129.868 179.006Z" fill="#263238"/>
<path d="M111.833 171.321C115.039 169.563 118.717 168.795 122.38 169.119C122.471 169.119 122.508 169.208 122.425 169.215C118.811 169.514 115.247 170.238 111.811 171.373L111.833 171.321Z" fill="#263238"/>
<path d="M118.056 156.627L128.663 165.185C132.335 160.808 135.736 156.223 138.848 151.452C142.961 144.897 138.908 144.42 132.821 147.43C126.734 150.439 118.056 156.627 118.056 156.627Z" fill="#2B5141"/>
<path d="M135.646 157.214C135.646 157.214 135.646 157.148 135.646 157.17L134.607 158.124C135.104 157.39 135.586 156.656 136.046 155.922C136.046 155.922 136.046 155.871 136.008 155.922C134.788 157.434 133.582 158.946 132.392 160.473C131.202 162 129.936 163.482 128.761 165.024C128.429 164.84 128.264 164.723 128.008 164.591C127.955 164.591 127.887 164.591 127.94 164.664C128.196 164.932 128.488 165.166 128.806 165.361C130.155 163.959 131.435 162.315 132.633 160.796C133.221 160.062 133.793 159.284 134.336 158.506C134.796 158.099 135.234 157.667 135.646 157.214Z" fill="#263238"/>
<path d="M129.574 162.932C126.741 160.397 123.774 158.009 120.685 155.775C120.64 155.775 120.587 155.819 120.625 155.856C123.459 158.387 126.424 160.775 129.507 163.013C129.559 163.086 129.62 162.969 129.574 162.932Z" fill="#263238"/>
<path d="M140.641 144.068C138.125 144.92 137.929 149.338 140.867 152.472C143.805 155.607 146.509 156.274 148.4 155.768C150.66 155.166 151.828 150.447 149.651 147.569C148.189 145.639 144.34 142.82 140.641 144.068Z" fill="#263238"/>
<path d="M147.383 153.772C144.37 154.19 140.965 150.241 139.85 147.21C140.175 145.661 140.579 144.13 141.063 142.622C141.455 141.154 141.816 139.503 142.11 137.976L151.557 141.851C150.677 143.673 150.032 145.594 149.636 147.569C149.601 147.778 149.589 147.989 149.598 148.2V148.311C149.606 149.529 149.681 153.449 147.383 153.772Z" fill="#774442"/>
<path d="M151.557 141.844C150.683 143.667 150.04 145.587 149.643 147.562C149.613 147.773 149.6 147.987 149.606 148.2V148.311C149.606 148.465 149.606 148.656 149.606 148.876C144.626 148.531 142.313 144.553 141.455 141.139C141.718 140.09 141.952 139.003 142.125 137.976L151.557 141.844Z" fill="#263238"/>
<path d="M142.193 126.012C140.159 129.006 139.029 139.055 140.792 141.881C143.338 145.969 148.965 147.922 152.898 144.611C156.717 141.404 157.945 128.287 155.843 125.579C152.747 121.586 145.214 121.578 142.193 126.012Z" fill="#774442"/>
<path d="M148.566 134.952C148.566 134.952 148.506 134.952 148.506 135.011C148.468 135.686 148.302 136.479 147.662 136.618V136.662C148.438 136.618 148.641 135.598 148.566 134.952Z" fill="#263238"/>
<path d="M148.009 134.196C146.909 134.02 146.622 136.185 147.647 136.346C148.671 136.508 148.935 134.35 148.009 134.196Z" fill="#263238"/>
<path d="M152.657 135.143C152.657 135.143 152.702 135.143 152.702 135.209C152.589 135.877 152.581 136.677 153.176 136.963C153.176 136.963 153.176 137.007 153.176 137C152.416 136.801 152.438 135.759 152.657 135.143Z" fill="#263238"/>
<path d="M153.357 134.519C154.48 134.577 154.284 136.721 153.244 136.721C152.205 136.721 152.423 134.46 153.357 134.519Z" fill="#263238"/>
<path d="M147.474 133.403C147.783 133.366 148.061 133.278 148.37 133.212C148.696 133.189 149.006 133.062 149.252 132.853C149.316 132.772 149.35 132.672 149.35 132.57C149.35 132.468 149.316 132.368 149.252 132.287C149.1 132.147 148.912 132.048 148.708 132.001C148.504 131.955 148.291 131.962 148.091 132.023C147.668 132.086 147.284 132.3 147.014 132.625C146.957 132.702 146.924 132.793 146.919 132.888C146.914 132.983 146.937 133.077 146.985 133.159C147.034 133.241 147.106 133.308 147.192 133.351C147.279 133.395 147.377 133.413 147.474 133.403Z" fill="#263238"/>
<path d="M154.299 133.726C154.009 133.631 153.725 133.521 153.448 133.396C153.13 133.319 152.848 133.144 152.642 132.897C152.595 132.806 152.579 132.702 152.596 132.602C152.614 132.502 152.664 132.409 152.739 132.339C152.913 132.224 153.116 132.157 153.325 132.145C153.535 132.134 153.744 132.178 153.93 132.273C154.333 132.394 154.676 132.655 154.894 133.007C154.947 133.093 154.972 133.193 154.965 133.294C154.958 133.395 154.92 133.491 154.855 133.569C154.79 133.648 154.702 133.705 154.602 133.733C154.503 133.761 154.397 133.759 154.299 133.726Z" fill="#263238"/>
<path d="M147.978 140.736C148.122 140.912 148.257 141.147 148.506 141.198C148.759 141.227 149.016 141.202 149.259 141.125C149.144 141.245 148.998 141.332 148.836 141.378C148.674 141.423 148.503 141.424 148.34 141.382C148.206 141.326 148.092 141.235 148.01 141.117C147.929 141 147.884 140.863 147.88 140.721C147.903 140.721 147.956 140.714 147.978 140.736Z" fill="#263238"/>
<path d="M148.528 138.805C148.67 139.091 148.869 139.345 149.116 139.552C149.362 139.759 149.649 139.915 149.96 140.009C150.23 140.094 150.512 140.143 150.796 140.156C150.856 140.156 151.06 140.156 151.12 140.156C151.157 140.151 151.191 140.134 151.218 140.109C151.245 140.084 151.263 140.052 151.27 140.016L151.414 138.548C151.594 138.666 152.521 139.216 152.544 138.945C152.785 136.612 152.785 134.261 152.544 131.928C152.539 131.915 152.53 131.904 152.519 131.896C152.507 131.888 152.494 131.883 152.48 131.883C152.465 131.883 152.452 131.888 152.44 131.896C152.429 131.904 152.42 131.915 152.416 131.928C152.174 134.086 152.333 136.266 152.129 138.438C151.801 138.232 151.443 138.074 151.067 137.969C151.022 137.969 150.939 139.745 150.931 139.752C150.492 139.743 150.058 139.647 149.658 139.469C149.258 139.291 148.899 139.035 148.604 138.717C148.558 138.703 148.498 138.747 148.528 138.805Z" fill="#263238"/>
<path d="M139.737 135.355C141.741 135.253 144.151 129.315 144.151 129.315C144.151 129.315 143.519 131.92 144.038 131.964C144.558 132.008 147.451 128.933 148.28 126.437C149.538 127.726 150.964 128.849 152.521 129.777C154.743 131.003 157.418 131.436 157.508 131.047C157.787 129.865 157.41 126.547 156.001 125.094C155.014 123.94 153.731 123.061 152.282 122.545C150.834 122.03 149.271 121.896 147.752 122.158C146.303 122.28 144.911 122.764 143.709 123.562C142.507 124.36 141.536 125.447 140.89 126.716C139.895 128.5 138.999 135.392 139.737 135.355Z" fill="#263238"/>
<path d="M142.125 135.069C142.125 135.069 140.784 131.399 139.112 131.759C137.439 132.119 137.846 137.088 139.368 138.152C139.553 138.302 139.768 138.415 139.999 138.482C140.23 138.55 140.473 138.571 140.713 138.545C140.953 138.519 141.185 138.446 141.395 138.331C141.606 138.215 141.79 138.06 141.937 137.873L142.125 135.069Z" fill="#774442"/>
<path d="M153.237 123.156C151.976 122.328 150.598 121.682 149.146 121.241C147.511 120.778 142.2 120.353 140.777 121.182C139.353 122.011 138.223 126.775 138.072 127.48C137.921 128.184 137.552 132.486 138.961 133.763C140.37 135.04 141.718 127.825 144.611 125.813C147.504 123.802 153.237 123.156 153.237 123.156Z" fill="#2B5141"/>
<path opacity="0.1" d="M153.237 123.156C153.237 123.156 147.504 123.802 144.611 125.813C141.718 127.825 140.377 135.04 138.961 133.763C138.642 133.434 138.394 133.047 138.231 132.623C138.068 132.199 137.993 131.748 138.012 131.296C138.69 129.234 140.106 126.092 142.291 124.103C144.332 122.232 147.421 121.615 150.577 121.754C151.502 122.149 152.392 122.618 153.237 123.156Z" fill="black"/>
<path d="M138.69 138.13C139.149 136.222 142.012 131.37 144.611 128.742C147.21 126.114 153.696 125.344 154.555 125.527C156.642 125.975 156.853 127.076 157.222 126.944C157.591 126.812 156.069 124.566 155.534 124.125C154.999 123.685 153.538 122.657 152.611 122.503C151.685 122.349 145.959 122.048 143.519 124.074C141.078 126.1 137.1 132.229 137.356 133.998C137.417 134.416 137.921 134.732 138.004 135.363C138.117 136.156 138.132 137.051 138.283 137.609C138.434 138.167 138.652 138.291 138.69 138.13Z" fill="#2B5141"/>
<path d="M145.327 127.487C144.891 127.124 144.488 126.726 144.121 126.298C143.741 125.87 143.415 125.399 143.15 124.896C143.15 124.859 143.067 124.896 143.082 124.896C143.28 125.447 143.564 125.964 143.925 126.43C144.293 126.886 144.749 127.267 145.266 127.553C145.327 127.612 145.327 127.524 145.327 127.487Z" fill="#263238"/>
<path d="M138.991 136.2C138.991 136.053 138.886 135.913 138.84 135.767C138.787 135.601 138.749 135.432 138.727 135.26C138.743 134.936 138.72 134.611 138.66 134.291C138.572 134.033 138.45 133.786 138.298 133.557C138.116 133.313 138.025 133.015 138.042 132.713C138.042 132.669 137.982 132.654 137.974 132.713C137.971 133.271 138.116 133.819 138.396 134.306C138.458 134.653 138.493 135.004 138.501 135.355C138.527 135.684 138.665 135.994 138.893 136.236C138.901 136.243 138.911 136.247 138.922 136.249C138.932 136.251 138.943 136.249 138.953 136.246C138.963 136.242 138.972 136.236 138.979 136.228C138.985 136.22 138.99 136.21 138.991 136.2Z" fill="#263238"/>
<path d="M140.053 134.218C139.903 133.968 139.729 133.741 139.601 133.484C139.483 133.228 139.38 132.966 139.292 132.698C139.21 132.434 139.149 132.163 139.066 131.898C138.984 131.634 138.84 131.274 138.765 130.959C138.765 130.922 138.69 130.959 138.705 130.959C138.78 131.289 138.803 131.634 138.878 131.964C138.939 132.251 139.02 132.533 139.119 132.808C139.215 133.063 139.333 133.309 139.473 133.542C139.612 133.79 139.799 134.009 140.023 134.188C140.023 134.188 140.053 134.24 140.053 134.218Z" fill="#263238"/>
<path d="M141.04 132.449C140.683 132.038 140.387 131.581 140.159 131.091C139.94 130.614 139.76 130.122 139.571 129.623C139.571 129.623 139.503 129.623 139.511 129.623C139.591 130.162 139.737 130.689 139.948 131.194C140.055 131.439 140.192 131.67 140.355 131.884C140.542 132.107 140.757 132.307 140.995 132.478C140.995 132.478 141.07 132.478 141.04 132.449Z" fill="#263238"/>
<path d="M142.125 130.79C141.939 130.621 141.788 130.419 141.681 130.195C141.545 129.953 141.417 129.704 141.296 129.461L140.935 128.727C140.807 128.501 140.727 128.251 140.701 127.993C140.701 127.993 140.633 127.957 140.633 127.993C140.612 128.262 140.648 128.532 140.739 128.786C140.821 129.069 140.93 129.344 141.063 129.608C141.194 129.862 141.343 130.107 141.507 130.342C141.636 130.57 141.833 130.755 142.072 130.871C142.083 130.873 142.093 130.872 142.103 130.868C142.113 130.863 142.121 130.857 142.127 130.848C142.133 130.839 142.135 130.829 142.135 130.819C142.135 130.808 142.131 130.798 142.125 130.79Z" fill="#263238"/>
<path d="M147.007 126.628C146.858 126.358 146.694 126.096 146.517 125.843C146.331 125.587 146.13 125.341 145.914 125.109C145.506 124.645 145.046 124.226 144.543 123.861C144.543 123.861 144.468 123.861 144.498 123.905C145.304 124.837 146.155 125.725 146.954 126.665C146.984 126.694 147.029 126.665 147.007 126.628Z" fill="#263238"/>
<path d="M148.476 125.16C148.317 124.895 148.127 124.649 147.911 124.426C147.437 123.98 146.917 123.584 146.359 123.244L146.321 123.296C146.781 123.707 147.24 124.111 147.677 124.551C147.897 124.764 148.103 124.989 148.295 125.226C148.483 125.461 148.611 125.733 148.792 125.96H148.837C148.769 125.674 148.646 125.403 148.476 125.16Z" fill="#263238"/>
<path d="M151.594 123.89C151.414 123.692 151.225 123.501 151.037 123.318C150.852 123.126 150.639 122.963 150.404 122.833C150.404 122.833 150.344 122.833 150.404 122.885C150.758 123.259 151.105 123.619 151.444 124.03C151.739 124.406 151.991 124.812 152.197 125.241C152.197 125.241 152.242 125.241 152.235 125.241C152.174 124.736 151.95 124.263 151.594 123.89Z" fill="#263238"/>
<path d="M153.131 123.81C152.806 123.403 152.404 123.059 151.948 122.797C151.911 122.797 151.881 122.797 151.911 122.855C152.316 123.156 152.672 123.515 152.965 123.92C153.261 124.324 153.514 124.757 153.719 125.212C153.719 125.212 153.772 125.212 153.764 125.212C153.669 124.702 153.452 124.222 153.131 123.81Z" fill="#263238"/>
<path d="M154.939 124.977C154.907 124.866 154.867 124.758 154.819 124.654C154.72 124.445 154.601 124.246 154.465 124.059C154.171 123.69 153.841 123.351 153.478 123.046C153.478 123.046 153.402 123.046 153.433 123.09C153.776 123.4 154.082 123.747 154.344 124.125C154.473 124.309 154.587 124.503 154.683 124.705C154.732 124.8 154.775 124.898 154.811 124.999C154.842 125.102 154.882 125.203 154.932 125.3H154.992C155 125.19 154.982 125.079 154.939 124.977Z" fill="#263238"/>
<path d="M156.114 125.263C156.024 125.094 155.926 124.933 155.821 124.771C155.714 124.615 155.598 124.466 155.474 124.323C155.346 124.177 155.21 124.037 155.082 123.883C155.082 123.846 155.007 123.883 155.037 123.927C155.168 124.074 155.287 124.231 155.391 124.397L155.693 124.859C155.798 125.013 155.896 125.168 155.994 125.322C156.092 125.476 156.182 125.652 156.295 125.799C156.295 125.799 156.355 125.799 156.348 125.799C156.292 125.612 156.214 125.432 156.114 125.263Z" fill="#263238"/>
<path d="M402.688 37.5353H396.827V276.739H402.688V37.5353Z" fill="#37474F"/>
<path d="M424.482 41.1906V97.4958H375.033V41.1906H399.757H424.482Z" fill="#2B5141"/>
<path d="M421.491 94.7212H378.024V43.9578H421.491V94.7212ZM378.777 93.9872H420.738V44.6918H378.777V93.9872Z" fill="#263238"/>
<path d="M411.766 74.4922H387.742V64.3263L389.851 51.085H409.656L411.766 64.3263V74.4922Z" fill="#263238"/>
<path d="M391.976 74.4922H389.377V79.1972H391.976V74.4922Z" fill="#263238"/>
<path d="M410.131 74.4922H407.532V79.1972H410.131V74.4922Z" fill="#263238"/>
<path d="M391.938 69.4203C391.938 69.6627 391.864 69.8997 391.726 70.1013C391.588 70.3029 391.391 70.46 391.161 70.5527C390.931 70.6455 390.678 70.6698 390.434 70.6225C390.19 70.5752 389.966 70.4585 389.79 70.287C389.614 70.1156 389.494 69.8972 389.446 69.6594C389.397 69.4216 389.422 69.1752 389.517 68.9512C389.613 68.7272 389.774 68.5358 389.981 68.4011C390.188 68.2664 390.431 68.1945 390.68 68.1945C391.013 68.1945 391.333 68.3236 391.569 68.5535C391.805 68.7834 391.938 69.0952 391.938 69.4203Z" fill="#2B5141"/>
<path d="M410.086 69.4203C410.086 69.6627 410.012 69.8997 409.874 70.1013C409.735 70.3029 409.539 70.46 409.309 70.5527C409.079 70.6455 408.826 70.6698 408.582 70.6225C408.338 70.5752 408.114 70.4585 407.938 70.287C407.762 70.1156 407.642 69.8972 407.594 69.6594C407.545 69.4216 407.57 69.1752 407.665 68.9512C407.761 68.7272 407.922 68.5358 408.129 68.4011C408.336 68.2664 408.579 68.1945 408.828 68.1945C409.161 68.1945 409.481 68.3236 409.717 68.5535C409.953 68.7834 410.086 69.0952 410.086 69.4203Z" fill="#2B5141"/>
<path d="M407.577 55.6651H391.938L390.552 64.3263H408.963L407.577 55.6651Z" fill="#2B5141"/>
<path d="M404.24 52.2373H395.268V53.9182H404.24V52.2373Z" fill="#2B5141"/>
<path d="M400.903 46.2846C400.903 46.5053 400.835 46.721 400.71 46.9044C400.584 47.0879 400.405 47.2309 400.196 47.3154C399.986 47.3998 399.756 47.4219 399.534 47.3788C399.312 47.3358 399.108 47.2295 398.948 47.0735C398.788 46.9175 398.679 46.7187 398.634 46.5023C398.59 46.2858 398.613 46.0615 398.7 45.8576C398.786 45.6538 398.933 45.4795 399.121 45.3569C399.31 45.2343 399.531 45.1689 399.757 45.1689C400.061 45.1689 400.352 45.2865 400.567 45.4957C400.782 45.7049 400.903 45.9887 400.903 46.2846Z" fill="#DBDBDB"/>
<path d="M400.903 92.4018C400.903 92.6225 400.835 92.8382 400.71 93.0217C400.584 93.2051 400.405 93.3481 400.196 93.4326C399.986 93.517 399.756 93.5391 399.534 93.4961C399.312 93.453 399.108 93.3467 398.948 93.1907C398.788 93.0347 398.679 92.8359 398.634 92.6195C398.59 92.4031 398.613 92.1787 398.7 91.9749C398.786 91.771 398.933 91.5968 399.121 91.4742C399.31 91.3516 399.531 91.2861 399.757 91.2861C400.061 91.2861 400.352 91.4037 400.567 91.6129C400.782 91.8221 400.903 92.1059 400.903 92.4018Z" fill="#DBDBDB"/>
<path d="M388.586 85.9279C388.588 86.0861 388.552 86.2426 388.48 86.3843C388.408 86.5261 388.302 86.649 388.171 86.7427C388.033 86.8367 387.881 86.9086 387.719 86.9555C387.54 87.003 387.355 87.0277 387.169 87.0289H385.052V82.7497H387.395C387.54 82.7481 387.683 82.7835 387.81 82.8525C387.934 82.9105 388.042 82.9959 388.126 83.102C388.217 83.2027 388.286 83.32 388.329 83.447C388.374 83.5747 388.397 83.7086 388.397 83.8434C388.397 84.0492 388.343 84.2515 388.239 84.4306C388.134 84.6119 387.969 84.7539 387.772 84.8343C388.017 84.8967 388.231 85.0398 388.38 85.2392C388.528 85.4387 388.601 85.6821 388.586 85.9279ZM385.904 83.4617V84.548H387.041C387.11 84.5497 387.178 84.5375 387.242 84.5122C387.305 84.487 387.363 84.4492 387.41 84.4012C387.462 84.3486 387.502 84.2863 387.527 84.2181C387.553 84.15 387.565 84.0774 387.561 84.0049C387.565 83.934 387.555 83.863 387.53 83.7961C387.506 83.7293 387.467 83.668 387.418 83.6158C387.376 83.569 387.323 83.5317 387.265 83.5063C387.206 83.481 387.143 83.4683 387.079 83.469L385.904 83.4617ZM387.727 85.7665C387.738 85.6935 387.738 85.6192 387.727 85.5463C387.696 85.4811 387.658 85.4195 387.614 85.3628C387.57 85.3135 387.516 85.2735 387.456 85.2453C387.394 85.2097 387.324 85.1919 387.252 85.1939H385.941V86.3243H387.147C387.222 86.3254 387.297 86.3104 387.365 86.2803C387.432 86.2524 387.494 86.2126 387.546 86.1628C387.592 86.1096 387.63 86.0503 387.659 85.9867C387.698 85.9189 387.721 85.8438 387.727 85.7665Z" fill="#263238"/>
<path d="M391.109 86.3243C391.286 86.3286 391.461 86.2854 391.614 86.1995C391.749 86.1225 391.865 86.0172 391.953 85.8912C392.039 85.7541 392.098 85.6021 392.126 85.4435C392.163 85.2746 392.181 85.1023 392.179 84.9297V82.7277H393.03V84.9297C393.032 85.2099 392.994 85.4891 392.917 85.7591C392.854 86.0048 392.738 86.2348 392.578 86.4344C392.42 86.6303 392.216 86.7864 391.983 86.8895C391.708 87.0073 391.41 87.0649 391.109 87.0583C390.803 87.0671 390.499 87.0068 390.22 86.8821C389.987 86.7732 389.783 86.6123 389.625 86.4124C389.467 86.2097 389.354 85.9772 389.294 85.7298C389.224 85.4685 389.188 85.1997 389.188 84.9297V82.7277H390.039V84.9297C390.04 85.105 390.06 85.2798 390.1 85.4508C390.128 85.6095 390.186 85.7615 390.273 85.8986C390.361 86.0355 390.485 86.147 390.632 86.2219C390.779 86.2967 390.944 86.332 391.109 86.3243Z" fill="#263238"/>
<path d="M396.503 83.8727L396.345 83.7553C396.255 83.7029 396.162 83.6563 396.066 83.6158L395.712 83.4984C395.584 83.4693 395.452 83.4545 395.32 83.4544C395.135 83.4399 394.951 83.4836 394.793 83.5791C394.736 83.6192 394.691 83.6724 394.661 83.734C394.63 83.7955 394.616 83.8633 394.62 83.9315C394.617 84.0101 394.641 84.0875 394.688 84.1517C394.738 84.2159 394.802 84.2685 394.876 84.3058C394.973 84.3574 395.077 84.3969 395.185 84.4232C395.313 84.4232 395.456 84.504 395.622 84.5407C395.787 84.5774 396.028 84.6581 396.209 84.7242C396.37 84.7785 396.52 84.8578 396.654 84.9591C396.771 85.0559 396.866 85.176 396.932 85.3114C397.003 85.4659 397.037 85.6341 397.03 85.8032C397.036 86.0069 396.99 86.2087 396.895 86.3904C396.813 86.5494 396.691 86.6857 396.541 86.7867C396.383 86.8915 396.207 86.9662 396.021 87.0069C395.818 87.0518 395.611 87.074 395.403 87.073C395.074 87.074 394.746 87.027 394.431 86.9335C394.122 86.8427 393.829 86.7039 393.565 86.5225L393.942 85.7885C394.004 85.8444 394.072 85.8937 394.145 85.9353L394.484 86.1041C394.625 86.1661 394.771 86.2153 394.921 86.2509C395.083 86.2944 395.25 86.3166 395.418 86.317C395.885 86.317 396.126 86.1702 396.126 85.8766C396.128 85.7913 396.098 85.7082 396.044 85.6417C395.983 85.5686 395.906 85.5107 395.818 85.4729C395.702 85.4164 395.581 85.3721 395.456 85.3407L394.989 85.2086C394.802 85.1587 394.618 85.0974 394.439 85.0251C394.299 84.9668 394.169 84.8875 394.055 84.7902C393.955 84.7022 393.875 84.5947 393.821 84.4746C393.766 84.3393 393.741 84.1943 393.746 84.0489C393.74 83.8516 393.782 83.6557 393.866 83.4764C393.945 83.3091 394.064 83.163 394.213 83.0507C394.364 82.9365 394.535 82.8495 394.718 82.7938C394.92 82.7342 395.131 82.7045 395.343 82.7057C395.634 82.7034 395.922 82.7532 396.194 82.8525C396.436 82.9342 396.666 83.0452 396.88 83.1828L396.503 83.8727Z" fill="#263238"/>
<path d="M401.769 83.8727L401.611 83.7553C401.522 83.7014 401.429 83.6547 401.332 83.6158C401.216 83.57 401.098 83.5308 400.978 83.4984C400.849 83.4688 400.718 83.4541 400.586 83.4543C400.403 83.4388 400.221 83.4826 400.066 83.5791C400.009 83.6183 399.962 83.6713 399.932 83.733C399.902 83.7948 399.888 83.8631 399.893 83.9314C399.891 84.0089 399.912 84.0852 399.953 84.1516C400.004 84.2159 400.068 84.2685 400.142 84.3058C400.241 84.3586 400.348 84.3981 400.458 84.4232C400.586 84.4232 400.729 84.504 400.895 84.5407C401.061 84.5774 401.302 84.6581 401.475 84.7242C401.636 84.7775 401.786 84.8569 401.92 84.959C402.039 85.0556 402.137 85.1756 402.206 85.3114C402.282 85.4814 402.322 85.6651 402.322 85.8509C402.322 86.0366 402.282 86.2203 402.206 86.3903C402.119 86.5482 401.995 86.684 401.844 86.7867C401.69 86.8921 401.516 86.9669 401.332 87.0069C401.129 87.0514 400.922 87.0736 400.714 87.073C400.382 87.0739 400.052 87.0269 399.735 86.9335C399.428 86.843 399.137 86.7042 398.876 86.5225L399.253 85.7885C399.312 85.8448 399.378 85.894 399.449 85.9353C399.547 85.9866 399.66 86.0454 399.795 86.1041C399.935 86.1674 400.082 86.2166 400.232 86.2509C400.394 86.2954 400.561 86.3176 400.729 86.3169C401.196 86.3169 401.43 86.1701 401.43 85.8765C401.435 85.7907 401.405 85.7065 401.347 85.6417C401.287 85.5686 401.209 85.5107 401.121 85.4728C401.006 85.4152 400.885 85.3709 400.759 85.3407L400.292 85.2086C400.107 85.1599 399.926 85.0986 399.75 85.0251C399.608 84.9668 399.476 84.8876 399.358 84.7902C399.261 84.7019 399.184 84.5943 399.132 84.4746C399.074 84.3399 399.046 84.1949 399.049 84.0489C399.046 83.851 399.09 83.6551 399.177 83.4764C399.255 83.3111 399.371 83.1654 399.516 83.0506C399.67 82.9364 399.844 82.8494 400.029 82.7937C400.231 82.7337 400.442 82.704 400.654 82.7057C400.944 82.7041 401.233 82.7538 401.505 82.8525C401.744 82.9357 401.972 83.0466 402.183 83.1828L401.769 83.8727Z" fill="#263238"/>
<path d="M406.191 83.4837H404.79V87.0289H403.946V83.4837H402.545V82.7497H406.191V83.4837Z" fill="#263238"/>
<path d="M408.406 87.0583C408.104 87.0636 407.805 87.0007 407.532 86.8748C407.275 86.7561 407.044 86.5889 406.854 86.383C406.486 85.9764 406.278 85.4565 406.266 84.915C406.264 84.6329 406.321 84.3534 406.432 84.0929C406.535 83.8366 406.689 83.6023 406.884 83.403C407.073 83.1994 407.304 83.0368 407.562 82.9259C407.83 82.8013 408.124 82.7385 408.421 82.7424C408.723 82.7394 409.022 82.8047 409.295 82.9332C409.548 83.0571 409.776 83.2264 409.965 83.4323C410.152 83.6501 410.297 83.8987 410.395 84.1663C410.548 84.552 410.587 84.972 410.508 85.3783C410.428 85.7847 410.232 86.1608 409.943 86.4637C409.751 86.6651 409.521 86.8273 409.265 86.9408C408.99 87.0395 408.697 87.0795 408.406 87.0583ZM407.133 84.8563C407.134 85.0378 407.162 85.2183 407.215 85.3921C407.272 85.5574 407.359 85.7115 407.472 85.8472C407.58 85.9791 407.716 86.0868 407.871 86.1628C408.039 86.2448 408.225 86.2875 408.413 86.2875C408.602 86.2875 408.787 86.2448 408.956 86.1628C409.114 86.0821 409.252 85.9695 409.362 85.8325C409.47 85.695 409.554 85.5413 409.611 85.3774C409.664 85.2085 409.692 85.033 409.694 84.8563C409.695 84.674 409.665 84.4928 409.604 84.3205C409.546 84.1533 409.459 83.9969 409.347 83.858C409.239 83.7261 409.103 83.6184 408.948 83.5424C408.781 83.465 408.598 83.4248 408.413 83.425C408.222 83.4218 408.033 83.4647 407.863 83.5498C407.707 83.6264 407.57 83.7369 407.464 83.8727C407.351 84.0093 407.266 84.1665 407.215 84.3351C407.158 84.5157 407.13 84.7039 407.133 84.893V84.8563Z" fill="#263238"/>
<path d="M411.201 87.0289V82.7497H413.061C413.257 82.7492 413.45 82.7919 413.626 82.8745C413.794 82.9545 413.942 83.0669 414.063 83.2048C414.188 83.3385 414.287 83.4926 414.357 83.6599C414.425 83.8233 414.46 83.9975 414.463 84.1737C414.461 84.3539 414.428 84.5326 414.365 84.7021C414.301 84.869 414.206 85.0233 414.086 85.1572C413.964 85.2902 413.815 85.3976 413.649 85.4728C413.476 85.5563 413.285 85.5991 413.091 85.5976H412.059V87.0289H411.201ZM412.059 84.8636H413.046C413.122 84.865 413.197 84.8492 413.265 84.8173C413.333 84.7854 413.392 84.7385 413.438 84.6801C413.55 84.5348 413.606 84.3554 413.596 84.1737C413.599 84.0733 413.581 83.9734 413.543 83.8801C413.514 83.8 413.471 83.7255 413.415 83.6599C413.365 83.6015 413.3 83.5562 413.227 83.5277C413.158 83.4985 413.084 83.4835 413.009 83.4837H412.059V84.8636Z" fill="#263238"/>
<path d="M404.782 212.998H394.725V276.739H404.782V212.998Z" fill="#263238"/>
</svg>
